if (_typeface_js && _typeface_js.loadFace) _typeface_js.loadFace({"glyphs":{"¦":{"x_min":278,"x_max":418,"ha":694,"o":"m 278 277 l 418 277 l 418 -237 l 278 -237 l 278 277 m 278 971 l 418 971 l 418 457 l 278 457 l 278 971 "},"Ž":{"x_min":-41,"x_max":714,"ha":676,"o":"m 543 0 l -41 0 l -10 156 l 458 885 l 117 885 l 155 1044 l 714 1044 l 683 891 l 214 164 l 577 164 l 543 0 m 308 1300 l 382 1300 l 468 1219 l 596 1300 l 683 1300 l 531 1143 l 390 1143 l 308 1300 "},"Á":{"x_min":-86,"x_max":681,"ha":730,"o":"m 278 418 l 438 418 l 454 919 l 278 418 m 113 0 l -86 0 l 353 1044 l 603 1044 l 627 0 l 436 0 l 436 268 l 219 268 l 113 0 m 479 1143 l 405 1143 l 524 1300 l 681 1300 l 479 1143 "},"Î":{"x_min":-18,"x_max":491,"ha":380,"o":"m 179 0 l -18 0 l 200 1044 l 398 1044 l 179 0 m 491 1141 l 416 1141 l 330 1223 l 201 1141 l 115 1141 l 266 1300 l 407 1300 l 491 1141 "},"e":{"x_min":11,"x_max":607,"ha":672,"o":"m 421 492 q 431 549 428 523 q 435 592 435 575 q 415 652 435 632 q 356 672 395 672 q 275 632 304 672 q 228 492 246 592 l 421 492 m 377 259 l 547 259 q 464 45 535 116 q 263 -26 393 -26 q 73 30 135 -26 q 11 204 11 87 q 13 262 11 229 q 21 329 16 294 q 51 501 34 425 q 86 620 67 577 q 193 760 127 718 q 368 803 258 803 q 549 750 492 803 q 607 586 607 698 q 599 488 607 544 q 576 370 591 433 l 206 370 q 189 270 195 313 q 183 203 183 227 q 204 131 183 155 q 268 108 225 108 q 341 144 315 108 q 377 259 368 181 "},"»":{"x_min":14,"x_max":634,"ha":720,"o":"m 444 672 l 634 454 l 604 316 l 335 121 l 366 287 l 529 398 l 413 526 l 444 672 m 123 672 l 313 454 l 283 316 l 14 121 l 46 287 l 208 398 l 93 526 l 123 672 "},"∆":{"x_min":0,"x_max":968,"ha":968,"o":"m 483 752 l 262 174 l 705 174 l 483 752 m 381 999 l 586 999 l 968 0 l 0 0 l 381 999 "},"ò":{"x_min":11,"x_max":619,"ha":686,"o":"m 11 221 q 17 304 11 254 q 36 419 23 354 q 78 588 57 529 q 127 690 98 646 q 223 774 164 745 q 360 803 282 803 q 554 741 490 803 q 619 559 619 680 q 612 470 619 521 q 594 358 606 419 q 552 199 575 265 q 499 87 528 133 q 405 3 465 32 q 266 -26 345 -26 q 74 35 138 -26 q 11 221 11 96 m 356 669 q 289 640 314 669 q 242 532 264 612 q 198 337 214 426 q 182 206 182 248 q 202 131 182 154 q 269 108 223 108 q 337 136 311 108 q 383 244 362 165 q 427 436 411 348 q 444 569 444 524 q 423 644 444 620 q 356 669 402 669 m 514 878 l 433 878 l 221 1035 l 389 1035 l 514 878 "},"^":{"x_min":282,"x_max":1105,"ha":1389,"o":"m 608 990 l 778 990 l 1105 610 l 945 610 l 694 861 l 441 610 l 282 610 l 608 990 "},"«":{"x_min":40,"x_max":659,"ha":720,"o":"m 549 121 l 361 339 l 390 478 l 659 672 l 628 507 l 464 394 l 580 266 l 549 121 m 228 121 l 40 339 l 69 478 l 338 672 l 307 507 l 143 394 l 259 266 l 228 121 "},"∙":{"x_min":62,"x_max":279,"ha":346,"o":"m 62 509 q 93 585 62 554 q 170 617 125 617 q 246 585 214 617 q 279 509 279 553 q 246 432 279 464 q 170 401 214 401 q 93 432 125 401 q 62 509 62 463 "},"í":{"x_min":-28,"x_max":426,"ha":349,"o":"m -28 0 l 137 778 l 319 778 l 153 0 l -28 0 m 224 878 l 150 878 l 269 1035 l 426 1035 l 224 878 "},"ˆ":{"x_min":208,"x_max":584,"ha":694,"o":"m 584 876 l 509 876 l 423 958 l 294 876 l 208 876 l 359 1035 l 500 1035 l 584 876 "},"µ":{"x_min":-43,"x_max":803,"ha":847,"o":"m 139 741 l 335 741 l 283 445 q 267 342 273 391 q 262 263 262 294 q 290 169 262 200 q 377 139 319 139 q 483 194 445 139 q 545 392 520 250 l 607 741 l 803 741 l 672 0 l 490 0 l 502 79 q 439 2 474 26 q 356 -22 404 -22 q 276 -2 311 -22 q 212 59 240 17 l 151 -297 l -43 -297 l 139 741 "},"č":{"x_min":11,"x_max":606,"ha":652,"o":"m 548 294 q 458 52 529 129 q 254 -25 387 -25 q 70 32 129 -25 q 11 209 11 89 q 17 299 11 246 q 36 419 23 351 q 76 582 55 520 q 127 689 97 644 q 223 773 164 744 q 358 803 282 803 q 537 745 476 803 q 599 577 599 688 q 597 543 599 562 q 591 500 595 524 l 418 500 q 424 544 422 525 q 427 577 427 563 q 406 644 427 621 q 350 668 386 668 q 287 638 311 668 q 243 533 262 608 q 200 345 215 426 q 186 211 186 263 q 203 133 186 157 q 258 110 220 110 q 333 155 306 110 q 372 294 361 200 l 548 294 m 231 1035 l 305 1035 l 391 954 l 519 1035 l 606 1035 l 454 878 l 313 878 l 231 1035 "},"’":{"x_min":113,"x_max":375,"ha":347,"o":"m 250 865 l 154 865 l 193 1044 l 375 1044 l 330 835 q 260 699 310 739 q 113 659 210 659 l 123 718 q 217 756 183 718 q 250 865 250 794 "},"-":{"x_min":16,"x_max":384,"ha":456,"o":"m 350 314 l 16 314 l 49 471 l 384 471 l 350 314 "},"Q":{"x_min":35,"x_max":778,"ha":815,"o":"m 704 -8 l 609 -94 l 501 17 q 426 -12 471 -2 q 323 -22 382 -22 q 112 52 189 -22 q 35 256 35 126 q 39 339 35 292 q 54 444 44 385 q 103 683 78 583 q 150 837 128 784 q 277 1015 203 960 q 467 1071 352 1071 q 702 1001 626 1071 q 778 787 778 932 q 761 606 778 714 q 712 370 744 498 q 661 201 687 266 q 604 97 636 137 l 704 -8 m 346 182 l 437 277 l 475 235 q 561 580 529 421 q 594 803 594 740 q 563 893 594 862 q 475 924 533 924 q 383 884 418 924 q 320 745 347 844 q 249 449 274 581 q 224 240 224 317 q 249 150 224 181 q 327 120 275 120 q 359 123 344 120 q 391 135 375 127 l 346 182 "},"M":{"x_min":-18,"x_max":1071,"ha":1054,"o":"m 168 0 l -18 0 l 198 1044 l 494 1044 l 498 589 q 498 454 498 508 q 497 349 497 400 q 547 495 533 456 q 572 559 561 535 l 780 1044 l 1071 1044 l 852 0 l 664 0 l 845 763 q 866 846 854 799 q 896 951 879 892 l 883 951 q 837 831 855 877 q 808 760 819 785 l 478 0 l 356 0 l 354 748 q 353 849 354 782 q 352 951 352 917 l 340 951 q 328 855 336 908 q 305 728 320 802 l 168 0 "},"œ":{"x_min":11,"x_max":986,"ha":1051,"o":"m 463 43 q 375 -7 425 8 q 262 -24 326 -24 q 75 35 139 -24 q 11 209 11 95 q 17 301 11 250 q 36 419 23 353 q 78 585 57 524 q 127 688 99 646 q 225 774 164 745 q 364 804 286 804 q 474 785 428 804 q 551 727 520 766 q 637 785 591 767 q 745 804 684 804 q 927 750 869 804 q 986 585 986 697 q 978 488 986 543 q 955 369 970 432 l 586 369 q 568 270 574 313 q 562 203 562 227 q 583 131 562 155 q 647 108 604 108 q 721 144 695 108 q 756 259 747 181 l 926 259 q 843 45 914 116 q 641 -26 772 -26 q 536 -9 578 -26 q 463 43 494 7 m 800 491 q 810 548 807 522 q 814 592 814 574 q 794 652 814 632 q 735 672 775 672 q 654 631 683 672 q 608 491 625 591 l 800 491 m 356 669 q 288 639 314 669 q 241 531 262 609 q 198 340 214 431 q 182 207 182 250 q 202 131 182 154 q 269 108 223 108 q 338 138 311 108 q 385 246 364 168 q 428 432 412 340 q 444 569 444 524 q 423 645 444 621 q 356 669 402 669 "},"{":{"x_min":107,"x_max":599,"ha":694,"o":"m 599 1002 l 599 860 q 581 860 592 860 q 567 861 571 861 q 474 835 498 861 q 450 725 450 809 l 450 562 q 419 420 450 462 q 309 359 389 377 q 419 300 389 341 q 450 158 450 258 l 450 -4 q 473 -113 450 -87 q 567 -139 497 -139 q 581 -138 571 -139 q 599 -138 592 -138 l 599 -280 q 572 -280 589 -280 q 547 -281 555 -281 q 434 -273 479 -281 q 356 -248 388 -265 q 301 -186 317 -225 q 286 -50 286 -147 l 286 119 q 251 251 286 212 q 134 290 216 290 q 121 289 130 290 q 107 289 111 289 l 107 431 q 121 430 111 431 q 134 429 130 429 q 251 468 216 429 q 286 601 286 508 l 286 771 q 301 907 286 868 q 356 970 317 947 q 434 995 388 987 q 547 1003 479 1003 q 572 1002 555 1003 q 599 1002 589 1002 "},"¼":{"x_min":85,"x_max":1082,"ha":1104,"o":"m 1082 576 l 995 205 l 1061 205 l 1041 123 l 974 123 l 945 0 l 830 0 l 859 123 l 660 123 l 679 215 l 940 576 l 1082 576 m 761 205 l 882 205 l 950 462 l 944 462 q 921 426 933 444 q 896 391 909 408 l 761 205 m 309 -20 l 205 -20 l 793 1051 l 899 1051 l 309 -20 m 242 449 l 126 449 l 224 874 q 161 866 195 869 q 85 861 127 863 l 99 930 q 227 960 180 936 q 296 1031 274 984 l 378 1031 l 242 449 "},"#":{"x_min":31,"x_max":1038,"ha":1068,"o":"m 481 575 l 421 409 l 591 409 l 650 575 l 481 575 m 481 993 l 631 993 l 532 711 l 696 711 l 796 993 l 946 993 l 846 711 l 1038 711 l 987 575 l 797 575 l 740 411 l 937 411 l 889 275 l 692 275 l 591 -7 l 441 -7 l 542 275 l 376 275 l 275 -7 l 126 -7 l 225 275 l 31 275 l 82 411 l 273 411 l 332 575 l 129 575 l 179 711 l 380 711 l 481 993 "},"Ê":{"x_min":-20,"x_max":708,"ha":682,"o":"m -20 0 l 198 1044 l 708 1044 l 674 877 l 354 877 l 299 623 l 613 623 l 580 462 l 266 462 l 204 168 l 547 168 l 514 0 l -20 0 m 642 1141 l 567 1141 l 481 1223 l 352 1141 l 266 1141 l 417 1300 l 558 1300 l 642 1141 "},")":{"x_min":-104,"x_max":350,"ha":457,"o":"m 230 1042 q 320 816 291 934 q 350 564 350 698 q 263 110 350 320 q 4 -280 177 -100 l -104 -280 q 8 -98 -41 -202 q 99 141 58 4 q 164 419 142 282 q 187 679 187 557 q 172 872 187 783 q 127 1042 157 962 l 230 1042 "},"Å":{"x_min":-86,"x_max":631,"ha":730,"o":"m 439 1201 q 455 1162 439 1179 q 494 1146 472 1146 q 534 1162 517 1146 q 552 1201 552 1178 q 535 1240 552 1224 q 494 1256 519 1256 q 455 1239 471 1256 q 439 1201 439 1223 m 360 1201 q 399 1297 360 1257 q 494 1337 439 1337 q 591 1296 551 1337 q 631 1201 631 1256 q 591 1105 631 1145 q 494 1065 551 1065 q 399 1104 439 1065 q 360 1201 360 1144 m 278 418 l 439 418 l 454 919 l 278 418 m 114 0 l -86 0 l 351 1029 l 603 1029 l 627 0 l 436 0 l 436 268 l 220 268 l 114 0 "},"¸":{"x_min":14,"x_max":369,"ha":694,"o":"m 135 -146 l 186 0 l 264 0 l 241 -63 q 337 -101 305 -71 q 369 -180 369 -130 q 319 -296 369 -255 q 178 -338 269 -338 q 110 -330 150 -338 q 14 -307 71 -323 l 46 -219 q 116 -237 85 -231 q 172 -243 147 -243 q 221 -229 203 -243 q 239 -192 239 -215 q 214 -156 239 -167 q 135 -146 190 -146 "},"a":{"x_min":-17,"x_max":612,"ha":676,"o":"m 389 375 q 332 350 369 367 q 164 194 164 279 q 183 127 164 150 q 241 104 203 104 q 330 155 299 104 q 389 375 361 206 m 341 60 q 269 -3 308 17 q 180 -24 230 -24 q 34 30 86 -24 q -17 185 -17 85 q 39 358 -17 293 q 216 451 95 422 q 240 456 224 453 q 433 598 433 502 q 411 653 433 633 q 352 673 390 673 q 276 645 303 673 q 238 555 250 617 l 64 555 q 154 742 81 680 q 356 804 226 804 q 544 754 477 804 q 612 614 612 704 q 609 581 612 601 q 602 537 607 561 l 512 105 q 505 60 508 88 q 500 0 502 33 l 333 0 l 341 60 "},"=":{"x_min":172,"x_max":984,"ha":1157,"o":"m 172 336 l 984 336 l 984 201 l 172 201 l 172 336 m 172 628 l 984 628 l 984 493 l 172 493 l 172 628 "},"˚":{"x_min":275,"x_max":586,"ha":694,"o":"m 372 1025 q 389 984 372 1001 q 430 967 406 967 q 471 984 454 967 q 489 1025 489 1001 q 472 1068 489 1051 q 430 1085 455 1085 q 388 1068 404 1085 q 372 1025 372 1051 m 275 1026 q 320 1135 275 1090 q 430 1181 365 1181 q 540 1135 495 1181 q 586 1026 586 1090 q 540 916 586 961 q 430 871 495 871 q 320 916 365 871 q 275 1026 275 961 "},"ú":{"x_min":0,"x_max":660,"ha":686,"o":"m 479 778 l 660 778 l 494 0 l 326 0 l 343 66 q 249 -1 296 20 q 152 -24 202 -24 q 39 13 79 -24 q 0 123 0 51 q 3 160 0 138 q 13 219 6 182 l 133 778 l 314 778 l 199 234 q 193 200 195 215 q 191 173 191 185 q 206 124 191 141 q 253 108 222 108 q 323 141 296 108 q 367 251 350 175 l 479 778 m 393 878 l 319 878 l 438 1035 l 595 1035 l 393 878 "},"¯":{"x_min":237,"x_max":608,"ha":694,"o":"m 237 918 l 256 1008 l 608 1008 l 588 918 l 237 918 "},"Z":{"x_min":-41,"x_max":714,"ha":676,"o":"m 543 0 l -41 0 l -10 156 l 458 885 l 117 885 l 155 1044 l 714 1044 l 683 891 l 214 164 l 577 164 l 543 0 "},"u":{"x_min":0,"x_max":660,"ha":686,"o":"m 479 778 l 660 778 l 494 0 l 326 0 l 343 66 q 249 -1 296 20 q 152 -24 202 -24 q 39 13 79 -24 q 0 123 0 51 q 3 160 0 138 q 13 219 6 182 l 133 778 l 314 778 l 199 234 q 193 200 195 215 q 191 173 191 185 q 206 124 191 141 q 253 108 222 108 q 323 141 296 108 q 367 251 350 175 l 479 778 "},"k":{"x_min":-28,"x_max":705,"ha":643,"o":"m -28 0 l 194 1042 l 374 1042 l 259 493 l 498 778 l 705 778 l 420 453 l 537 0 l 351 0 l 277 312 l 202 229 l 153 0 l -28 0 "},"Ù":{"x_min":35,"x_max":847,"ha":829,"o":"m 694 318 q 648 149 669 198 q 594 65 627 100 q 488 -2 552 20 q 343 -26 424 -26 q 118 42 202 -26 q 35 225 35 111 q 41 292 35 251 q 62 404 47 332 l 200 1044 l 393 1044 l 246 351 q 234 285 238 313 q 230 237 230 257 q 263 152 230 183 q 355 121 297 121 q 448 158 416 121 q 504 320 479 196 l 656 1044 l 847 1044 l 694 318 m 650 1143 l 569 1143 l 357 1300 l 525 1300 l 650 1143 "},"¢":{"x_min":41,"x_max":601,"ha":694,"o":"m 178 10 q 72 68 104 24 q 41 204 41 113 q 48 324 41 256 q 70 469 55 391 q 103 611 86 553 q 142 712 120 669 q 225 799 173 769 q 350 832 277 829 l 388 1006 l 504 1006 l 467 819 q 570 755 539 801 q 601 618 601 709 q 599 573 601 597 q 596 526 598 549 l 427 526 q 433 584 431 559 q 436 620 436 609 q 419 679 436 660 q 369 698 403 698 q 310 669 331 698 q 270 555 289 641 q 232 359 246 450 q 219 219 219 269 q 234 158 219 177 q 282 139 249 139 q 352 181 327 139 q 388 322 377 224 l 553 322 q 481 86 546 167 q 297 0 417 5 l 253 -199 l 131 -199 l 178 10 "},"Ş":{"x_min":32,"x_max":743,"ha":779,"o":"m 43 376 l 226 376 q 224 361 225 370 q 220 296 220 316 q 246 164 220 203 q 333 126 273 126 q 433 166 395 126 q 472 271 472 206 q 335 468 472 362 l 328 473 q 174 628 212 564 q 136 772 136 691 q 217 992 136 914 q 448 1071 298 1071 q 667 1002 591 1071 q 743 805 743 934 q 741 770 743 790 q 738 722 740 749 l 554 722 q 557 768 556 751 q 558 795 558 786 q 528 893 558 860 q 441 927 499 927 q 352 893 386 927 q 319 806 319 859 q 345 725 319 763 q 452 624 372 687 q 479 603 461 617 q 672 311 672 455 q 580 64 672 154 q 327 -25 489 -25 q 109 48 183 -25 q 36 264 36 121 q 37 320 36 293 q 43 376 39 347 m 153 -146 l 204 0 l 282 0 l 259 -63 q 355 -101 323 -71 q 387 -180 387 -130 q 337 -296 387 -255 q 196 -338 287 -338 q 128 -330 168 -338 q 32 -307 89 -323 l 64 -219 q 134 -237 103 -231 q 190 -243 165 -243 q 239 -229 221 -243 q 257 -192 257 -215 q 232 -156 257 -167 q 153 -146 208 -146 "},"é":{"x_min":11,"x_max":607,"ha":672,"o":"m 421 492 q 431 549 428 523 q 435 592 435 575 q 415 652 435 632 q 356 672 395 672 q 275 632 304 672 q 228 492 246 592 l 421 492 m 377 259 l 547 259 q 464 45 535 116 q 263 -26 393 -26 q 73 30 135 -26 q 11 204 11 87 q 13 262 11 229 q 21 329 16 294 q 51 501 34 425 q 86 620 67 577 q 193 760 127 718 q 368 803 258 803 q 549 750 492 803 q 607 586 607 698 q 599 488 607 544 q 576 370 591 433 l 206 370 q 189 270 195 313 q 183 203 183 227 q 204 131 183 155 q 268 108 225 108 q 341 144 315 108 q 377 259 368 181 m 378 878 l 304 878 l 423 1035 l 580 1035 l 378 878 "},"B":{"x_min":-17,"x_max":732,"ha":790,"o":"m 198 147 l 289 147 q 435 196 390 147 q 480 357 480 246 q 445 452 480 423 q 331 480 411 480 q 294 480 307 480 q 268 478 281 479 l 198 147 m 296 619 l 375 619 q 501 663 459 619 q 543 795 543 707 q 516 877 543 853 q 425 902 489 902 l 355 902 l 296 619 m -17 0 l 201 1044 l 440 1044 q 664 986 597 1044 q 732 799 732 929 q 685 617 732 685 q 551 534 638 549 q 640 460 609 512 q 671 331 671 408 q 639 165 671 237 q 550 52 608 92 q 448 12 508 24 q 234 0 388 0 l -17 0 "},"…":{"x_min":37,"x_max":1185,"ha":1389,"o":"m 219 0 l 37 0 l 76 180 l 258 180 l 219 0 m 682 0 l 500 0 l 539 180 l 721 180 l 682 0 m 1146 0 l 964 0 l 1003 180 l 1185 180 l 1146 0 "},"H":{"x_min":-18,"x_max":849,"ha":831,"o":"m 173 0 l -18 0 l 200 1044 l 393 1044 l 307 633 l 570 633 l 656 1044 l 849 1044 l 629 0 l 436 0 l 538 480 l 275 480 l 173 0 "},"î":{"x_min":-28,"x_max":419,"ha":349,"o":"m -28 0 l 137 778 l 319 778 l 153 0 l -28 0 m 419 876 l 344 876 l 258 958 l 129 876 l 43 876 l 194 1035 l 335 1035 l 419 876 "},"−":{"x_min":172,"x_max":984,"ha":1157,"o":"m 172 484 l 984 484 l 984 346 l 172 346 l 172 484 "},"≠":{"x_min":172,"x_max":984,"ha":1157,"o":"m 811 836 l 912 756 l 807 626 l 984 626 l 984 496 l 720 496 l 590 334 l 984 334 l 984 203 l 504 203 l 338 -6 l 238 74 l 342 203 l 172 203 l 172 334 l 427 334 l 556 496 l 172 496 l 172 626 l 643 626 l 811 836 "},"¥":{"x_min":5,"x_max":836,"ha":790,"o":"m 836 1029 l 648 710 l 805 710 l 785 617 l 589 617 l 532 519 l 764 519 l 745 426 l 474 426 l 388 0 l 205 0 l 292 426 l 5 426 l 26 519 l 263 519 l 234 617 l 45 617 l 66 710 l 202 710 l 102 1029 l 304 1029 l 377 737 q 392 675 385 708 q 405 600 398 641 q 441 688 426 655 q 463 735 455 722 l 620 1029 l 836 1029 "},"U":{"x_min":35,"x_max":847,"ha":829,"o":"m 694 318 q 648 149 669 198 q 594 65 627 100 q 488 -2 552 20 q 343 -26 424 -26 q 118 42 202 -26 q 35 225 35 111 q 41 292 35 251 q 62 404 47 332 l 200 1044 l 393 1044 l 246 351 q 234 285 238 313 q 230 237 230 257 q 263 152 230 183 q 355 121 297 121 q 448 158 416 121 q 504 320 479 196 l 656 1044 l 847 1044 l 694 318 "},"Ñ":{"x_min":-20,"x_max":849,"ha":833,"o":"m 170 0 l -20 0 l 199 1044 l 407 1044 l 504 469 q 515 380 511 433 q 521 262 519 328 l 529 262 q 541 397 534 336 q 556 499 548 458 l 657 1044 l 849 1044 l 632 0 l 417 0 l 329 591 q 317 696 322 643 q 312 800 313 749 l 302 801 q 294 685 300 745 q 276 562 287 626 l 170 0 m 436 1153 l 363 1153 q 412 1247 379 1214 q 491 1281 445 1281 q 524 1278 508 1281 q 554 1272 540 1276 l 588 1262 q 606 1258 597 1259 q 625 1257 615 1257 q 656 1266 643 1257 q 675 1295 668 1276 l 749 1295 q 697 1198 730 1229 q 614 1168 664 1168 q 590 1169 602 1168 q 566 1175 579 1171 l 531 1185 q 504 1193 512 1191 q 490 1195 496 1195 q 457 1184 470 1195 q 436 1153 443 1173 "},"F":{"x_min":-18,"x_max":710,"ha":672,"o":"m -18 0 l 200 1044 l 710 1044 l 676 877 l 355 877 l 301 623 l 615 623 l 581 462 l 270 462 l 173 0 l -18 0 "},"*":{"x_min":115,"x_max":680,"ha":694,"o":"m 397 671 l 276 502 l 177 569 l 309 738 l 115 792 l 150 908 l 339 845 l 339 1044 l 456 1044 l 456 845 l 638 908 l 680 792 l 486 740 l 613 570 l 517 498 l 397 671 "},"†":{"x_min":46,"x_max":677,"ha":694,"o":"m 132 -219 l 268 567 l 46 567 l 66 688 l 290 688 l 353 1044 l 510 1044 l 446 688 l 677 688 l 655 567 l 426 567 l 295 -219 l 132 -219 "},"∕":{"x_min":-232,"x_max":462,"ha":229,"o":"m -127 -20 l -232 -20 l 356 1051 l 462 1051 l -127 -20 "},"°":{"x_min":24,"x_max":435,"ha":457,"o":"m 230 906 q 145 871 180 906 q 110 787 110 836 q 144 702 110 737 q 230 668 179 668 q 314 703 279 668 q 349 787 349 738 q 314 871 349 836 q 230 906 279 906 m 229 993 q 374 932 314 993 q 435 786 435 871 q 374 641 435 701 q 228 581 314 581 q 83 640 142 581 q 24 786 24 700 q 84 932 24 872 q 229 993 144 993 "},"å":{"x_min":-17,"x_max":612,"ha":676,"o":"m 343 60 q 270 -3 309 17 q 181 -24 231 -24 q 34 30 86 -24 q -17 185 -17 85 q 39 358 -17 293 q 216 451 95 422 q 240 456 225 453 q 433 598 433 502 q 412 653 433 633 q 352 673 391 673 q 276 645 303 673 q 238 555 250 617 l 64 555 q 154 742 81 680 q 356 804 226 804 q 544 754 477 804 q 612 614 612 704 q 609 581 612 601 q 602 537 607 561 l 511 105 q 505 60 508 88 q 500 0 502 33 l 334 0 l 343 60 m 390 375 q 332 350 370 367 q 164 194 164 279 q 184 127 164 150 q 241 104 204 104 q 330 155 300 104 q 390 375 361 206 m 346 979 q 362 940 346 956 q 401 924 379 924 q 440 940 424 924 q 456 979 456 956 q 440 1018 456 1002 q 401 1034 424 1034 q 362 1017 379 1034 q 346 979 346 1001 m 265 979 q 304 1075 265 1035 q 401 1115 344 1115 q 497 1075 457 1115 q 537 979 537 1035 q 497 882 537 922 q 401 843 457 843 q 304 882 344 843 q 265 979 265 922 "},"0":{"x_min":17,"x_max":672,"ha":694,"o":"m 411 904 q 351 878 374 904 q 308 784 328 852 q 278 670 299 756 q 234 470 258 583 q 204 307 215 382 q 193 203 193 232 q 213 138 193 159 q 275 117 233 117 q 335 143 311 117 q 378 236 358 169 q 407 347 388 265 q 452 551 426 430 q 482 714 471 639 q 494 817 494 789 q 474 882 494 861 q 411 904 454 904 m 17 232 q 22 316 17 266 q 40 433 28 367 q 83 644 61 548 q 123 793 105 739 q 238 983 169 924 q 416 1042 307 1042 q 606 974 541 1042 q 672 776 672 906 q 663 668 672 729 q 630 494 655 607 q 583 294 605 375 q 539 160 560 213 q 434 26 503 74 q 276 -21 364 -21 q 83 44 150 -21 q 17 232 17 109 "},"":{"x_min":77,"x_max":1021,"ha":1097,"o":"m 567 824 q 566 834 566 828 q 565 849 565 839 q 630 1005 565 934 q 790 1094 694 1077 q 791 1079 791 1087 q 791 1052 791 1070 q 721 893 791 963 q 583 823 651 823 l 578 823 q 573 824 576 823 q 567 824 570 824 m 1021 273 q 881 40 943 105 q 743 -24 820 -24 q 654 -1 709 -24 q 571 20 599 20 q 482 -1 540 20 q 396 -24 424 -24 q 309 5 353 -24 q 221 95 265 35 q 114 295 152 190 q 77 499 77 401 q 161 741 77 648 q 380 835 246 835 q 485 811 426 835 q 570 788 544 788 q 652 812 593 788 q 755 836 711 836 q 890 809 830 836 q 999 725 949 782 q 896 626 930 680 q 863 502 863 571 q 903 366 863 425 q 1021 273 944 307 "},"”":{"x_min":113,"x_max":708,"ha":681,"o":"m 584 862 l 488 862 l 525 1041 l 708 1041 l 664 833 q 593 697 643 737 q 446 657 544 657 l 457 716 q 550 753 517 716 q 584 862 583 791 m 250 865 l 154 865 l 193 1044 l 375 1044 l 330 835 q 260 699 310 739 q 113 659 210 659 l 123 718 q 217 756 183 718 q 250 865 250 794 "},"ö":{"x_min":11,"x_max":619,"ha":686,"o":"m 11 221 q 17 304 11 254 q 36 419 23 354 q 78 588 57 529 q 127 690 98 646 q 223 774 164 745 q 360 803 282 803 q 554 741 490 803 q 619 559 619 680 q 612 470 619 521 q 594 358 606 419 q 552 199 575 265 q 499 87 528 133 q 405 3 465 32 q 266 -26 345 -26 q 74 35 138 -26 q 11 221 11 96 m 356 669 q 289 640 314 669 q 242 532 264 612 q 198 337 214 426 q 182 206 182 248 q 202 131 182 154 q 269 108 223 108 q 337 136 311 108 q 383 244 362 165 q 427 436 411 348 q 444 569 444 524 q 423 644 444 620 q 356 669 402 669 m 435 885 l 467 1031 l 611 1031 l 578 885 l 435 885 m 226 885 l 259 1031 l 402 1031 l 368 885 l 226 885 "},"Õ":{"x_min":35,"x_max":778,"ha":815,"o":"m 473 922 q 384 882 418 922 q 321 741 350 843 q 246 438 275 577 q 217 262 217 300 q 247 157 217 192 q 338 123 277 123 q 440 169 403 123 q 514 369 477 216 q 571 638 550 518 q 593 801 593 758 q 562 891 593 860 q 473 922 532 922 m 35 256 q 39 341 35 295 q 54 443 44 388 q 102 677 77 575 q 150 834 127 780 q 278 1013 203 957 q 466 1069 353 1069 q 701 999 625 1069 q 778 784 778 929 q 775 722 778 755 q 768 655 773 690 q 730 439 752 541 q 683 264 708 338 q 549 43 631 110 q 333 -24 468 -24 q 110 47 186 -24 q 35 256 35 118 m 427 1153 l 354 1153 q 403 1247 370 1214 q 482 1281 436 1281 q 515 1278 499 1281 q 545 1272 531 1276 l 579 1262 q 597 1258 588 1259 q 616 1257 606 1257 q 647 1266 634 1257 q 666 1295 659 1276 l 740 1295 q 688 1198 721 1229 q 605 1168 655 1168 q 581 1169 593 1168 q 557 1175 570 1171 l 522 1185 q 495 1193 503 1191 q 481 1195 487 1195 q 448 1184 461 1195 q 427 1153 434 1173 "},"ć":{"x_min":11,"x_max":599,"ha":652,"o":"m 548 294 q 458 52 529 129 q 254 -25 387 -25 q 70 32 129 -25 q 11 209 11 89 q 17 299 11 246 q 36 419 23 351 q 76 582 55 520 q 127 689 97 644 q 223 773 164 744 q 358 803 282 803 q 537 745 476 803 q 599 577 599 688 q 597 543 599 562 q 591 500 595 524 l 418 500 q 424 544 422 525 q 427 577 427 563 q 406 644 427 621 q 350 668 386 668 q 287 638 311 668 q 243 533 262 608 q 200 345 215 426 q 186 211 186 263 q 203 133 186 157 q 258 110 220 110 q 333 155 306 110 q 372 294 361 200 l 548 294 m 368 878 l 294 878 l 413 1035 l 570 1035 l 368 878 "},"þ":{"x_min":-83,"x_max":627,"ha":692,"o":"m 273 126 q 332 147 307 126 q 374 210 357 168 q 429 402 408 301 q 451 576 451 502 q 435 647 451 626 q 382 669 419 669 q 315 638 342 669 q 264 531 287 607 q 221 358 236 442 q 205 210 205 273 q 223 148 205 170 q 273 126 241 126 m 381 1042 l 314 724 q 375 783 341 763 q 453 803 410 803 q 583 745 539 803 q 627 573 627 688 q 622 508 627 545 q 607 405 618 470 q 575 259 593 325 q 538 148 557 193 q 447 23 500 64 q 321 -18 393 -18 q 230 9 267 -18 q 175 91 193 37 l 101 -264 l -83 -264 l 196 1042 l 381 1042 "},"]":{"x_min":-90,"x_max":467,"ha":457,"o":"m 185 1042 l 467 1042 l 187 -269 l -90 -269 l -67 -151 l 41 -151 l 269 924 l 161 924 l 185 1042 "},"8":{"x_min":11,"x_max":661,"ha":694,"o":"m 403 910 q 322 848 354 910 q 291 690 291 786 q 312 632 291 654 q 369 610 334 610 q 454 668 422 610 q 486 827 486 727 q 464 888 486 866 q 403 910 442 910 m 212 567 q 147 641 168 597 q 126 745 126 684 q 202 961 126 878 q 404 1044 279 1044 q 593 980 526 1044 q 661 802 661 917 q 611 613 661 688 q 479 522 561 537 q 562 450 534 498 q 590 330 590 402 q 502 75 590 171 q 267 -20 415 -20 q 79 46 147 -20 q 11 227 11 112 q 63 458 11 370 q 212 567 116 547 m 326 480 q 271 462 295 480 q 233 412 247 445 q 203 313 215 372 q 191 208 191 254 q 211 143 191 166 q 270 120 232 120 q 336 137 312 120 q 376 199 360 155 q 398 290 389 235 q 408 386 408 345 q 387 455 408 431 q 326 480 366 480 "},"R":{"x_min":-18,"x_max":801,"ha":821,"o":"m 297 600 l 397 600 q 550 644 503 600 q 597 789 597 689 q 564 876 597 850 q 455 902 532 902 l 360 902 l 297 600 m 175 0 l -18 0 l 200 1044 l 467 1044 q 725 985 649 1044 q 801 785 801 926 q 742 600 801 677 q 588 509 683 524 q 668 459 642 496 q 694 355 694 421 q 691 325 694 342 q 684 277 689 309 l 661 141 q 658 118 659 130 q 657 87 657 106 q 661 48 657 67 q 677 0 665 28 l 467 0 q 459 30 462 12 q 457 69 457 47 q 459 111 457 88 q 465 157 461 133 l 484 282 q 488 316 487 298 q 490 355 490 334 q 452 437 490 413 q 323 461 415 461 q 295 460 306 461 q 272 458 284 459 l 175 0 "},"o":{"x_min":11,"x_max":619,"ha":686,"o":"m 11 221 q 17 304 11 254 q 36 419 23 354 q 78 588 57 529 q 127 690 98 646 q 223 774 164 745 q 360 803 282 803 q 554 741 490 803 q 619 559 619 680 q 612 470 619 521 q 594 358 606 419 q 552 199 575 265 q 499 87 528 133 q 405 3 465 32 q 266 -26 345 -26 q 74 35 138 -26 q 11 221 11 96 m 356 669 q 289 640 314 669 q 242 532 264 612 q 198 337 214 426 q 182 206 182 248 q 202 131 182 154 q 269 108 223 108 q 337 136 311 108 q 383 244 362 165 q 427 436 411 348 q 444 569 444 524 q 423 644 444 620 q 356 669 402 669 "},"5":{"x_min":18,"x_max":676.171875,"ha":694,"o":"m 28 343 l 205 343 q 197 266 199 289 q 196 225 196 242 q 217 139 196 166 q 283 112 238 112 q 389 198 350 112 q 428 438 428 285 q 403 529 428 500 q 328 559 379 559 q 275 541 299 559 q 240 493 251 524 l 67 493 l 212 1029 l 676 1029 l 645 883 l 324 883 l 263 652 q 324 683 290 673 q 400 694 358 694 q 553 623 499 694 q 607 422 607 552 q 585 248 607 334 q 530 102 564 161 q 429 4 491 37 q 281 -28 368 -28 q 86 39 155 -28 q 18 230 18 107 q 20 292 18 263 q 28 343 23 320 "},"õ":{"x_min":11,"x_max":619,"ha":686,"o":"m 11 221 q 17 304 11 254 q 36 419 23 354 q 78 588 57 529 q 127 690 98 646 q 223 774 164 745 q 360 803 282 803 q 554 741 490 803 q 619 559 619 680 q 612 470 619 521 q 594 358 606 419 q 552 199 575 265 q 499 87 528 133 q 405 3 465 32 q 266 -26 345 -26 q 74 35 138 -26 q 11 221 11 96 m 356 669 q 289 640 314 669 q 242 532 264 612 q 198 337 214 426 q 182 206 182 248 q 202 131 182 154 q 269 108 223 108 q 337 136 311 108 q 383 244 362 165 q 427 436 411 348 q 444 569 444 524 q 423 644 444 620 q 356 669 402 669 m 298 888 l 225 888 q 274 982 241 949 q 353 1016 307 1016 q 386 1013 370 1016 q 416 1007 402 1011 l 450 997 q 468 993 459 994 q 487 992 477 992 q 518 1001 505 992 q 537 1030 530 1011 l 611 1030 q 559 933 592 964 q 476 903 526 903 q 452 904 464 903 q 428 910 441 906 l 393 920 q 366 928 374 926 q 352 930 358 930 q 319 919 332 930 q 298 888 305 908 "},",":{"x_min":-50,"x_max":211,"ha":347,"o":"m 87 0 l -8 0 l 29 179 l 211 179 l 168 -29 q 98 -164 147 -124 q -50 -204 48 -204 l -38 -145 q 53 -108 21 -145 q 87 0 86 -70 "},"d":{"x_min":12,"x_max":723,"ha":692,"o":"m 365 652 q 305 629 331 652 q 263 567 279 607 q 209 377 229 478 q 189 201 189 276 q 204 130 189 151 q 255 109 219 109 q 313 131 288 109 q 356 197 338 153 q 378 266 367 225 q 403 367 390 308 q 425 480 418 430 q 432 559 432 529 q 415 628 432 604 q 365 652 397 652 m 338 0 l 356 81 q 282 0 322 25 q 186 -25 241 -25 q 55 31 98 -25 q 12 204 12 88 q 16 276 12 236 q 30 372 20 316 q 62 516 43 450 q 101 629 80 582 q 191 755 138 714 q 316 796 244 796 q 407 768 370 796 q 462 686 444 740 l 537 1042 l 723 1042 l 498 0 l 338 0 "},"\"":{"x_min":53,"x_max":406,"ha":460,"o":"m 275 975 l 406 975 l 406 596 l 275 596 l 275 975 m 53 975 l 184 975 l 184 596 l 53 596 l 53 975 "},"˙":{"x_min":350,"x_max":529,"ha":694,"o":"m 350 896 l 383 1053 l 529 1053 l 494 896 l 350 896 "},"ê":{"x_min":11,"x_max":607,"ha":672,"o":"m 421 492 q 431 549 428 523 q 435 592 435 575 q 415 652 435 632 q 356 672 395 672 q 275 632 304 672 q 228 492 246 592 l 421 492 m 377 259 l 547 259 q 464 45 535 116 q 263 -26 393 -26 q 73 30 135 -26 q 11 204 11 87 q 13 262 11 229 q 21 329 16 294 q 51 501 34 425 q 86 620 67 577 q 193 760 127 718 q 368 803 258 803 q 549 750 492 803 q 607 586 607 698 q 599 488 607 544 q 576 370 591 433 l 206 370 q 189 270 195 313 q 183 203 183 227 q 204 131 183 155 q 268 108 225 108 q 341 144 315 108 q 377 259 368 181 m 573 876 l 498 876 l 412 958 l 283 876 l 197 876 l 348 1035 l 489 1035 l 573 876 "},"„":{"x_min":-54,"x_max":540,"ha":681,"o":"m 415 0 l 320 0 l 357 178 l 540 178 l 496 -30 q 426 -165 476 -126 q 279 -205 377 -205 l 289 -147 q 381 -109 349 -147 q 415 0 414 -71 m 82 0 l -12 0 l 25 180 l 208 180 l 164 -27 q 93 -163 143 -123 q -54 -204 43 -204 l -42 -144 q 49 -107 16 -144 q 82 0 82 -69 "},"Â":{"x_min":-86,"x_max":674,"ha":730,"o":"m 278 418 l 438 418 l 454 919 l 278 418 m 113 0 l -86 0 l 353 1044 l 603 1044 l 627 0 l 436 0 l 436 268 l 219 268 l 113 0 m 674 1141 l 599 1141 l 513 1223 l 384 1141 l 298 1141 l 449 1300 l 590 1300 l 674 1141 "},"Í":{"x_min":-18,"x_max":498,"ha":380,"o":"m 179 0 l -18 0 l 200 1044 l 398 1044 l 179 0 m 296 1143 l 222 1143 l 341 1300 l 498 1300 l 296 1143 "},"´":{"x_min":315,"x_max":591,"ha":694,"o":"m 389 878 l 315 878 l 434 1035 l 591 1035 l 389 878 "},"Ú":{"x_min":35,"x_max":847,"ha":829,"o":"m 694 318 q 648 149 669 198 q 594 65 627 100 q 488 -2 552 20 q 343 -26 424 -26 q 118 42 202 -26 q 35 225 35 111 q 41 292 35 251 q 62 404 47 332 l 200 1044 l 393 1044 l 246 351 q 234 285 238 313 q 230 237 230 257 q 263 152 230 183 q 355 121 297 121 q 448 158 416 121 q 504 320 479 196 l 656 1044 l 847 1044 l 694 318 m 521 1143 l 447 1143 l 566 1300 l 723 1300 l 521 1143 "},"Ý":{"x_min":54,"x_max":797,"ha":703,"o":"m 350 0 l 156 0 l 245 426 l 54 1044 l 266 1044 l 345 711 q 351 676 347 700 q 362 613 356 651 q 389 685 376 652 q 413 736 403 717 l 570 1044 l 797 1044 l 438 430 l 350 0 m 457 1143 l 383 1143 l 502 1300 l 659 1300 l 457 1143 "},"Ω":{"x_min":37.046875,"x_max":1029.15625,"ha":1068,"o":"m 831 174 l 1029 174 l 1029 0 l 617 0 l 617 197 q 746 344 701 255 q 791 545 791 434 q 722 762 791 683 q 532 841 653 841 q 343 762 412 841 q 275 545 275 683 q 319 344 275 434 q 449 197 364 255 l 449 0 l 37 0 l 37 174 l 234 174 q 107 350 148 255 q 66 555 66 444 q 193 895 66 767 q 532 1023 321 1023 q 872 895 744 1023 q 1000 555 1000 767 q 958 350 1000 444 q 831 174 917 255 "},"Ö":{"x_min":35,"x_max":778,"ha":815,"o":"m 473 922 q 384 882 418 922 q 321 741 350 843 q 246 438 275 577 q 217 262 217 300 q 247 157 217 192 q 338 123 277 123 q 440 169 403 123 q 514 369 477 216 q 571 638 550 518 q 593 801 593 758 q 562 891 593 860 q 473 922 532 922 m 35 256 q 39 341 35 295 q 54 443 44 388 q 102 677 77 575 q 150 834 127 780 q 278 1013 203 957 q 466 1069 353 1069 q 701 999 625 1069 q 778 784 778 929 q 775 722 778 755 q 768 655 773 690 q 730 439 752 541 q 683 264 708 338 q 549 43 631 110 q 333 -24 468 -24 q 110 47 186 -24 q 35 256 35 118 m 564 1150 l 596 1296 l 740 1296 l 707 1150 l 564 1150 m 355 1150 l 388 1296 l 531 1296 l 497 1150 l 355 1150 "},"z":{"x_min":-65,"x_max":542,"ha":543,"o":"m 411 0 l -65 0 l -33 151 l 311 638 l 56 638 l 86 778 l 542 778 l 514 651 l 158 147 l 441 147 l 411 0 "},"™":{"x_min":141,"x_max":981,"ha":1157,"o":"m 545 991 l 678 991 l 764 765 l 847 991 l 981 991 l 981 620 l 889 620 l 889 898 l 785 620 l 744 620 l 637 898 l 637 620 l 545 620 l 545 991 m 141 991 l 470 991 l 470 915 l 356 915 l 356 620 l 255 620 l 255 915 l 141 915 l 141 991 "},"ã":{"x_min":-17,"x_max":612,"ha":676,"o":"m 389 375 q 332 350 369 367 q 164 194 164 279 q 183 127 164 150 q 241 104 203 104 q 330 155 299 104 q 389 375 361 206 m 341 60 q 269 -3 308 17 q 180 -24 230 -24 q 34 30 86 -24 q -17 185 -17 85 q 39 358 -17 293 q 216 451 95 422 q 240 456 224 453 q 433 598 433 502 q 411 653 433 633 q 352 673 390 673 q 276 645 303 673 q 238 555 250 617 l 64 555 q 154 742 81 680 q 356 804 226 804 q 544 754 477 804 q 612 614 612 704 q 609 581 612 601 q 602 537 607 561 l 512 105 q 505 60 508 88 q 500 0 502 33 l 333 0 l 341 60 m 294 888 l 221 888 q 270 982 237 949 q 349 1016 303 1016 q 382 1013 366 1016 q 412 1007 398 1011 l 446 997 q 464 993 455 994 q 483 992 473 992 q 514 1001 501 992 q 533 1030 526 1011 l 607 1030 q 555 933 588 964 q 472 903 522 903 q 448 904 460 903 q 424 910 437 906 l 389 920 q 362 928 370 926 q 348 930 354 930 q 315 919 328 930 q 294 888 301 908 "},"æ":{"x_min":-18,"x_max":963,"ha":1028,"o":"m 388 377 q 335 354 370 368 q 158 194 158 279 q 180 132 158 155 q 240 108 203 108 q 329 160 298 108 q 388 377 361 211 m 585 495 l 777 495 q 787 556 784 534 q 791 595 791 579 q 770 654 791 634 q 712 675 750 675 q 631 633 660 675 q 585 495 601 591 m 902 262 q 819 46 890 116 q 614 -24 749 -24 q 467 4 519 -24 q 390 97 415 33 q 307 11 363 42 q 179 -19 251 -19 q 34 35 87 -19 q -18 187 -18 91 q 39 360 -18 296 q 221 453 97 424 q 247 459 230 455 q 429 591 429 501 q 410 654 429 633 q 351 675 390 675 q 275 645 302 675 q 238 553 247 615 l 65 553 q 148 742 75 679 q 354 806 220 806 q 469 792 423 806 q 541 750 514 778 q 612 792 569 778 q 714 806 656 806 q 900 751 838 806 q 963 586 963 696 q 955 495 963 549 q 931 373 947 442 l 562 373 q 544 272 550 313 q 538 207 538 230 q 559 134 538 158 q 624 110 580 110 q 696 143 672 110 q 734 262 721 177 l 902 262 "},"É":{"x_min":-20,"x_max":708,"ha":682,"o":"m -20 0 l 198 1044 l 708 1044 l 674 877 l 354 877 l 299 623 l 613 623 l 580 462 l 266 462 l 204 168 l 547 168 l 514 0 l -20 0 m 447 1143 l 373 1143 l 492 1300 l 649 1300 l 447 1143 "},"~":{"x_min":121,"x_max":1038,"ha":1157,"o":"m 1038 543 l 1038 393 q 904 323 967 346 q 780 301 841 301 q 718 306 749 301 q 656 321 687 311 q 607 338 639 327 q 382 389 459 389 q 261 363 324 389 q 121 282 199 338 l 121 433 q 259 505 193 481 q 383 529 325 529 q 580 490 462 529 l 583 489 q 620 476 595 485 q 783 440 726 440 q 902 464 841 440 q 1038 543 963 489 "},"³":{"x_min":5,"x_max":436,"ha":458,"o":"m 15 618 l 129 618 q 124 578 126 594 q 123 547 123 561 q 136 492 123 510 q 177 475 149 475 q 240 511 219 475 q 262 617 262 547 q 237 678 262 660 q 157 697 213 697 l 149 697 l 167 776 l 175 776 l 192 776 q 288 804 258 776 q 319 896 319 833 q 303 936 319 922 q 260 951 288 951 q 209 927 228 951 q 185 857 190 903 l 70 857 q 126 988 76 941 q 259 1036 176 1036 q 389 997 343 1036 q 436 886 436 958 q 403 775 436 818 q 313 721 370 731 q 369 675 351 702 q 387 608 387 648 q 332 446 387 503 q 178 390 278 390 q 50 431 95 390 q 5 548 5 472 q 7 578 5 560 q 15 618 10 596 "},"¡":{"x_min":16,"x_max":405,"ha":406,"o":"m 211 777 l 322 777 l 267 311 l 203 0 l 16 0 l 82 323 l 211 777 m 223 1044 l 405 1044 l 367 864 l 184 864 l 223 1044 "},"[":{"x_min":-66,"x_max":491,"ha":457,"o":"m 213 -269 l -66 -269 l 212 1042 l 491 1042 l 468 924 l 358 924 l 131 -151 l 239 -151 l 213 -269 "},"%":{"x_min":61,"x_max":1010,"ha":1071,"o":"m 715 241 q 731 116 715 148 q 793 84 748 84 q 856 114 839 84 q 874 239 874 145 q 855 361 874 327 q 790 395 836 395 q 731 361 748 395 q 715 241 715 328 m 579 243 q 628 439 579 379 q 790 499 678 499 q 958 440 907 499 q 1010 244 1010 381 q 957 43 1010 106 q 790 -20 905 -20 q 628 40 677 -20 q 579 243 579 101 m 197 792 q 213 667 197 699 q 276 636 230 636 q 338 666 321 636 q 356 792 356 697 q 337 913 356 880 q 272 947 319 947 q 213 913 230 947 q 197 792 197 880 m 61 797 q 110 992 61 933 q 273 1051 160 1051 q 441 992 390 1051 q 492 798 492 934 q 439 595 492 659 q 273 532 387 532 q 110 593 160 532 q 61 797 61 654 m 244 -20 l 721 1051 l 824 1051 l 346 -20 l 244 -20 "},"P":{"x_min":-18,"x_max":753,"ha":762,"o":"m 176 0 l -18 0 l 200 1044 l 449 1044 q 682 981 612 1044 q 753 776 753 918 q 732 644 753 705 q 673 537 712 583 q 562 462 628 484 q 363 440 495 440 q 281 442 340 440 q 268 442 273 442 l 176 0 m 300 593 l 384 593 q 519 639 478 593 q 560 789 560 685 q 531 876 560 850 q 436 902 503 902 l 365 902 l 300 593 "},"∏":{"x_min":102,"x_max":989,"ha":1093,"o":"m 102 999 l 989 999 l 989 -266 l 756 -266 l 756 803 l 335 803 l 335 -266 l 102 -266 l 102 999 "},"_":{"x_min":0,"x_max":694,"ha":694,"o":"m 0 -190 l 694 -190 l 694 -328 l 0 -328 l 0 -190 "},"ñ":{"x_min":-31,"x_max":629,"ha":686,"o":"m 151 0 l -31 0 l 134 778 l 302 778 l 287 711 q 380 779 334 757 q 475 802 426 802 q 589 763 549 802 q 629 654 629 725 q 625 619 629 640 q 614 560 622 598 l 496 0 l 315 0 l 430 543 q 438 583 436 570 q 440 604 440 595 q 423 653 440 636 q 376 670 407 670 q 305 636 332 670 q 262 528 278 603 l 151 0 m 301 888 l 228 888 q 277 982 244 949 q 356 1016 310 1016 q 389 1013 373 1016 q 419 1007 405 1011 l 453 997 q 471 993 462 994 q 490 992 480 992 q 521 1001 508 992 q 540 1030 533 1011 l 614 1030 q 562 933 595 964 q 479 903 529 903 q 455 904 467 903 q 431 910 444 906 l 396 920 q 369 928 377 926 q 355 930 361 930 q 322 919 335 930 q 301 888 308 908 "},"‚":{"x_min":-54,"x_max":208,"ha":347,"o":"m 82 0 l -12 0 l 25 179 l 208 179 l 164 -29 q 93 -164 143 -124 q -54 -204 44 -204 l -42 -145 q 49 -108 17 -145 q 82 0 82 -70 "},"Æ":{"x_min":-74,"x_max":1166,"ha":1140,"o":"m 441 0 l 498 270 l 265 270 l 144 0 l -74 0 l 480 1044 l 1166 1044 l 1132 877 l 812 877 l 757 623 l 1071 623 l 1038 462 l 724 462 l 662 168 l 1005 168 l 972 0 l 441 0 m 528 414 l 625 877 l 556 877 l 333 414 l 528 414 "},"₣":{"x_min":-18,"x_max":1177,"ha":1158,"o":"m -18 0 l 200 1044 l 710 1044 l 676 877 l 355 877 l 301 623 l 615 623 l 581 462 l 270 462 l 173 0 l -18 0 m 979 778 l 948 654 l 952 654 q 1032 766 985 730 q 1146 802 1079 802 q 1164 801 1158 802 q 1177 800 1170 801 l 1137 600 q 1111 602 1124 601 q 1086 603 1099 603 q 977 570 1014 603 q 923 459 939 537 l 825 0 l 644 0 l 810 778 l 979 778 "},"ğ":{"x_min":-31,"x_max":664,"ha":692,"o":"m 483 778 l 664 778 l 497 -8 q 399 -220 462 -167 q 194 -273 335 -273 q 34 -228 93 -273 q -31 -103 -24 -184 l 139 -103 q 154 -140 139 -128 q 205 -152 170 -152 q 284 -112 258 -152 q 333 51 311 -73 q 274 -4 312 15 q 187 -25 236 -25 q 55 31 98 -25 q 12 204 12 88 q 16 276 12 236 q 30 372 20 316 q 62 516 43 450 q 101 629 80 582 q 191 755 138 714 q 316 796 244 796 q 407 768 370 796 q 462 686 444 740 l 483 778 m 365 652 q 306 629 332 652 q 263 567 279 607 q 209 377 229 478 q 189 201 189 276 q 204 130 189 151 q 255 109 219 109 q 313 131 288 109 q 356 197 338 153 q 379 266 367 225 q 404 367 390 308 q 425 480 418 430 q 433 559 433 529 q 415 628 433 604 q 365 652 398 652 m 253 1036 l 329 1036 q 351 984 330 1001 q 416 967 373 967 q 493 983 462 967 q 545 1036 523 1000 l 624 1036 q 542 917 597 957 q 405 878 487 878 q 290 913 328 878 q 253 1020 253 948 l 253 1036 "},"ª":{"x_min":-12,"x_max":460,"ha":507,"o":"m 293 764 q 253 748 278 758 q 124 636 124 697 q 139 589 124 605 q 182 574 154 574 q 248 610 225 574 q 293 764 272 647 m 257 543 q 202 498 231 512 q 136 484 173 484 q 26 522 65 484 q -12 631 -12 560 q 30 752 -12 707 q 162 817 72 796 q 175 819 166 817 q 325 920 325 852 q 309 959 325 945 q 265 973 293 973 q 208 953 228 973 q 179 890 188 933 l 49 890 q 115 1020 61 977 q 268 1063 169 1063 q 409 1028 359 1063 q 460 931 460 994 q 458 912 460 924 q 453 877 457 901 l 384 573 q 379 538 381 557 q 376 501 377 519 l 250 500 l 257 543 "},"Œ":{"x_min":37,"x_max":1168,"ha":1145,"o":"m 474 921 q 384 881 418 921 q 321 740 349 841 q 249 440 276 578 q 222 259 222 303 q 249 157 222 189 q 337 125 276 125 q 440 171 403 125 q 513 369 477 217 q 571 639 549 519 q 592 800 592 760 q 562 890 592 859 q 474 921 532 921 m 438 0 l 455 79 q 382 6 426 29 q 273 -17 338 -17 q 99 54 161 -17 q 37 255 37 126 q 48 409 37 322 q 81 594 60 496 q 134 783 105 702 q 198 923 163 865 q 310 1032 239 994 q 469 1071 380 1071 q 586 1038 541 1071 q 637 950 631 1005 l 658 1046 l 1168 1046 l 1133 878 l 812 878 l 758 626 l 1072 626 l 1039 463 l 724 463 l 663 168 l 1007 168 l 972 0 l 438 0 "},"T":{"x_min":72,"x_max":741,"ha":667,"o":"m 308 0 l 115 0 l 301 881 l 72 881 l 105 1044 l 741 1044 l 705 881 l 494 881 l 308 0 "},"š":{"x_min":-17,"x_max":584,"ha":607,"o":"m -10 277 l 144 276 q 143 253 143 265 q 143 222 143 241 q 164 139 143 165 q 232 113 186 113 q 298 135 276 113 q 320 201 320 157 q 225 327 320 257 l 217 333 q 95 451 126 399 q 65 574 65 503 q 132 744 65 685 q 324 804 199 804 q 499 748 439 804 q 559 589 559 693 q 558 565 559 586 q 557 528 557 545 l 401 528 l 401 550 q 381 648 401 622 q 312 674 362 674 q 256 652 277 674 q 236 594 236 631 q 317 478 236 534 q 350 456 339 464 q 460 348 426 402 q 494 230 494 294 q 424 44 494 110 q 227 -22 354 -22 q 43 33 104 -22 q -17 201 -17 89 q -15 238 -17 220 q -10 277 -13 257 m 209 1035 l 283 1035 l 369 954 l 497 1035 l 584 1035 l 432 878 l 291 878 l 209 1035 "},"Þ":{"x_min":-18,"x_max":720,"ha":762,"o":"m 265 437 l 352 437 q 487 483 446 437 q 528 633 528 529 q 499 720 528 694 q 404 746 471 746 l 333 746 l 265 437 m 416 889 q 649 825 578 889 q 720 618 720 762 q 699 486 720 547 q 641 379 679 425 q 531 305 597 327 q 330 284 465 284 q 275 284 296 284 q 236 284 254 284 l 176 0 l -18 0 l 200 1044 l 397 1044 l 363 889 l 416 889 "},"j":{"x_min":-146,"x_max":382,"ha":349,"o":"m 200 1042 l 382 1042 l 348 887 l 167 887 l 200 1042 m 144 -81 q 76 -228 121 -191 q -74 -265 31 -265 q -105 -262 -88 -265 q -146 -256 -123 -260 l -115 -124 q -105 -125 -110 -125 q -90 -126 -99 -126 q -52 -114 -63 -126 q -31 -65 -40 -103 l 144 778 l 326 778 l 144 -81 "},"1":{"x_min":134,"x_max":601,"ha":694,"o":"m 385 0 l 200 0 l 357 760 q 248 746 305 751 q 134 737 192 740 l 158 860 q 361 914 286 871 q 472 1039 436 956 l 601 1039 l 385 0 "},"›":{"x_min":14,"x_max":311,"ha":399,"o":"m 123 672 l 311 454 l 282 316 l 14 121 l 46 287 l 207 398 l 92 526 l 123 672 "},"<":{"x_min":179,"x_max":978,"ha":1157,"o":"m 978 809 l 978 660 l 372 413 l 978 166 l 978 18 l 179 346 l 179 481 l 978 809 "},"t":{"x_min":5,"x_max":403,"ha":385,"o":"m 371 1002 l 322 778 l 403 778 l 377 660 l 297 660 l 198 194 q 197 186 198 191 q 196 172 196 176 q 209 141 196 150 q 257 132 223 132 l 275 132 l 245 0 q 197 -6 220 -4 q 153 -8 175 -8 q 43 22 82 -8 q 5 111 5 53 q 8 153 5 129 q 17 205 11 176 l 115 660 l 47 660 l 71 778 l 140 778 l 187 1002 l 371 1002 "},"¬":{"x_min":172,"x_max":984,"ha":1157,"o":"m 172 586 l 984 586 l 984 246 l 849 246 l 849 453 l 172 453 l 172 586 "},"ù":{"x_min":0,"x_max":660,"ha":686,"o":"m 479 778 l 660 778 l 494 0 l 326 0 l 343 66 q 249 -1 296 20 q 152 -24 202 -24 q 39 13 79 -24 q 0 123 0 51 q 3 160 0 138 q 13 219 6 182 l 133 778 l 314 778 l 199 234 q 193 200 195 215 q 191 173 191 185 q 206 124 191 141 q 253 108 222 108 q 323 141 296 108 q 367 251 350 175 l 479 778 m 522 878 l 441 878 l 229 1035 l 397 1035 l 522 878 "},"ï":{"x_min":-28,"x_max":450,"ha":349,"o":"m -28 0 l 137 778 l 319 778 l 153 0 l -28 0 m 274 885 l 306 1031 l 450 1031 l 417 885 l 274 885 m 65 885 l 98 1031 l 241 1031 l 207 885 l 65 885 "},"Ò":{"x_min":35,"x_max":778,"ha":815,"o":"m 473 922 q 384 882 418 922 q 321 741 350 843 q 246 438 275 577 q 217 262 217 300 q 247 157 217 192 q 338 123 277 123 q 440 169 403 123 q 514 369 477 216 q 571 638 550 518 q 593 801 593 758 q 562 891 593 860 q 473 922 532 922 m 35 256 q 39 341 35 295 q 54 443 44 388 q 102 677 77 575 q 150 834 127 780 q 278 1013 203 957 q 466 1069 353 1069 q 701 999 625 1069 q 778 784 778 929 q 775 722 778 755 q 768 655 773 690 q 730 439 752 541 q 683 264 708 338 q 549 43 631 110 q 333 -24 468 -24 q 110 47 186 -24 q 35 256 35 118 m 643 1143 l 562 1143 l 350 1300 l 518 1300 l 643 1143 "},"&":{"x_min":35,"x_max":789,"ha":868,"o":"m 412 704 q 490 774 464 739 q 516 842 516 808 q 497 895 516 875 q 446 915 478 915 q 390 894 411 915 q 370 837 370 873 q 380 787 370 818 q 412 704 390 756 m 465 187 l 332 476 q 241 391 269 435 q 213 293 213 347 q 252 186 213 230 q 350 142 292 142 q 407 153 379 142 q 465 187 435 164 m 741 0 l 551 0 l 524 53 q 426 -5 480 15 q 315 -26 372 -26 q 113 60 192 -26 q 35 284 35 146 q 95 469 35 386 q 273 616 155 553 q 228 727 244 673 q 213 825 213 782 q 277 983 213 920 q 439 1047 341 1047 q 607 990 544 1047 q 670 840 670 933 q 622 693 670 760 q 480 570 574 625 l 583 344 q 616 419 603 377 q 638 526 629 462 l 789 526 q 752 350 784 436 q 657 177 720 265 l 741 0 "},"":{"x_min":-47,"x_max":721,"ha":694,"o":"m -6 466 l 105 466 q 118 533 109 489 q 123 558 122 550 l 8 558 l 48 648 l 143 648 q 166 738 156 700 q 189 808 177 777 q 301 984 230 927 q 479 1042 372 1042 q 660 976 600 1042 q 721 779 721 911 q 719 740 721 760 q 716 703 718 721 l 541 702 q 543 717 541 706 q 551 804 551 772 q 532 879 551 854 q 475 904 513 904 q 404 870 429 904 q 350 722 379 837 q 335 661 344 701 q 332 648 333 652 l 576 648 l 536 558 l 311 558 q 295 483 304 531 q 292 466 293 472 l 495 466 l 455 376 l 273 376 q 260 293 265 330 q 256 242 256 256 l 256 218 q 272 139 256 162 q 329 117 289 117 q 404 155 375 117 q 454 282 433 194 l 631 282 q 594 166 614 211 q 548 87 575 122 q 452 6 507 33 q 333 -21 398 -21 q 144 45 210 -21 q 78 237 78 112 l 78 258 q 82 313 78 283 q 90 376 85 343 l -47 376 l -6 466 "},"˝":{"x_min":298,"x_max":694,"ha":694,"o":"m 565 1069 l 694 1069 l 548 876 l 491 876 l 565 1069 m 371 1069 l 500 1069 l 354 876 l 298 876 l 371 1069 "},"I":{"x_min":-18,"x_max":398,"ha":380,"o":"m 179 0 l -18 0 l 200 1044 l 398 1044 l 179 0 "},"G":{"x_min":36,"x_max":761,"ha":818,"o":"m 507 95 q 412 5 463 34 q 296 -24 361 -24 q 108 51 181 -24 q 36 250 36 127 q 41 345 36 294 q 58 474 46 397 q 100 683 78 593 q 148 834 123 773 q 273 1012 199 956 q 459 1068 347 1068 q 689 998 617 1068 q 761 774 761 928 q 759 740 761 757 q 755 701 758 722 l 567 701 q 570 745 569 726 q 572 777 572 764 q 546 888 572 856 q 462 921 521 921 q 376 882 408 921 q 317 741 344 844 q 248 442 273 575 q 223 249 223 310 q 251 151 223 184 q 335 119 279 119 q 454 187 410 119 q 512 395 498 256 l 393 395 l 426 554 l 742 554 l 629 0 l 494 0 l 507 95 "},"`":{"x_min":225,"x_max":518,"ha":694,"o":"m 518 878 l 437 878 l 225 1035 l 393 1035 l 518 878 "},"·":{"x_min":62,"x_max":279,"ha":346,"o":"m 62 509 q 93 585 62 554 q 170 617 125 617 q 246 585 214 617 q 279 509 279 553 q 246 432 279 464 q 170 401 214 401 q 93 432 125 401 q 62 509 62 463 "},"¿":{"x_min":43,"x_max":574,"ha":690,"o":"m 390 1044 l 574 1044 l 534 864 l 353 864 l 390 1044 m 353 761 l 513 761 q 483 610 510 674 q 390 479 455 546 q 345 433 375 463 q 225 222 225 315 q 246 139 225 164 q 316 115 267 115 q 381 147 359 115 q 406 243 403 180 l 574 243 q 504 44 574 113 q 306 -25 435 -25 q 113 41 184 -25 q 43 222 43 108 q 224 548 43 383 q 244 568 237 561 q 328 667 308 627 q 353 761 348 706 "},"ý":{"x_min":-49,"x_max":641,"ha":611,"o":"m -49 -254 l -18 -120 q -13 -120 -16 -120 q 18 -123 8 -123 q 78 -99 59 -123 q 98 -26 98 -76 q 96 22 98 -12 q 95 30 96 28 l 42 778 l 223 778 l 233 210 l 448 778 l 641 778 l 259 -80 q 163 -231 207 -197 q 42 -265 119 -265 q 3 -262 24 -265 q -49 -254 -17 -260 m 348 878 l 274 878 l 393 1035 l 550 1035 l 348 878 "},"º":{"x_min":8,"x_max":465,"ha":515,"o":"m 8 654 q 12 710 8 676 q 27 792 17 744 q 58 911 43 870 q 95 983 73 952 q 167 1042 122 1022 q 270 1063 212 1063 q 416 1019 367 1063 q 465 891 465 976 q 460 830 465 865 q 445 751 455 796 q 413 637 430 682 q 374 560 396 591 q 303 502 348 522 q 199 482 259 482 q 55 524 103 482 q 8 654 8 567 m 267 968 q 216 948 235 968 q 181 873 198 929 q 148 735 160 797 q 136 644 136 674 q 151 591 136 607 q 202 575 167 575 q 253 595 234 575 q 286 670 272 616 q 320 804 308 743 q 333 898 333 866 q 317 951 333 934 q 267 968 301 968 "},"∞":{"x_min":139,"x_max":1019,"ha":1157,"o":"m 638 380 q 710 303 669 329 q 805 278 752 278 q 908 315 868 278 q 948 413 948 353 q 911 510 948 472 q 820 549 874 549 q 726 509 769 549 q 638 380 683 470 m 519 447 q 447 523 489 498 q 352 549 406 549 q 249 510 289 549 q 210 412 210 472 q 246 316 210 354 q 337 278 283 278 q 431 317 388 278 q 519 447 474 356 m 581 309 q 482 177 535 220 q 364 135 429 135 q 204 214 269 135 q 139 413 139 294 q 196 615 139 538 q 348 692 254 692 q 463 651 410 692 q 574 517 516 610 q 675 649 621 606 q 793 693 729 693 q 953 612 888 693 q 1019 413 1019 532 q 960 213 1019 289 q 809 136 902 136 q 693 176 746 136 q 581 309 641 215 "},";":{"x_min":-60,"x_max":320,"ha":378,"o":"m 281 585 l 99 585 l 138 765 l 320 765 l 281 585 m 77 0 l -19 0 l 20 179 l 202 179 l 157 -29 q 87 -164 137 -124 q -60 -204 38 -204 l -49 -145 q 44 -107 10 -145 q 77 0 77 -69 "},"6":{"x_min":24,"x_max":671,"ha":694,"o":"m 355 558 q 303 541 326 558 q 264 492 279 524 q 218 355 236 438 q 200 203 200 273 q 217 137 200 158 q 273 117 235 117 q 328 134 305 117 q 364 189 351 152 q 406 336 390 257 q 422 474 422 416 q 406 538 422 518 q 355 558 390 558 m 278 637 q 339 679 306 665 q 412 693 372 693 q 557 634 505 693 q 609 471 609 575 q 582 268 609 370 q 516 103 556 166 q 415 9 473 39 q 273 -21 356 -21 q 89 45 154 -21 q 24 231 24 111 q 29 315 24 265 q 49 442 35 366 q 103 703 76 602 q 163 871 130 804 q 267 1000 204 960 q 428 1040 330 1040 q 610 984 550 1040 q 671 816 671 928 q 670 795 671 802 q 669 782 670 788 l 503 782 l 503 798 q 483 878 503 852 q 423 905 463 905 q 347 860 375 905 q 278 637 319 815 "},"n":{"x_min":-31,"x_max":629,"ha":686,"o":"m 151 0 l -31 0 l 134 778 l 302 778 l 287 711 q 380 779 334 757 q 475 802 426 802 q 589 763 549 802 q 629 654 629 725 q 625 619 629 640 q 614 560 622 598 l 496 0 l 315 0 l 430 543 q 438 583 436 570 q 440 604 440 595 q 423 653 440 636 q 376 670 407 670 q 305 636 332 670 q 262 528 278 603 l 151 0 "},"¤":{"x_min":-47,"x_max":721,"ha":694,"o":"m -6 466 l 105 466 q 118 533 109 489 q 123 558 122 550 l 8 558 l 48 648 l 143 648 q 166 738 156 700 q 189 808 177 777 q 301 984 230 927 q 479 1042 372 1042 q 660 976 600 1042 q 721 779 721 911 q 719 740 721 760 q 716 703 718 721 l 541 702 q 543 717 541 706 q 551 804 551 772 q 532 879 551 854 q 475 904 513 904 q 404 870 429 904 q 350 722 379 837 q 335 661 344 701 q 332 648 333 652 l 576 648 l 536 558 l 311 558 q 295 483 304 531 q 292 466 293 472 l 495 466 l 455 376 l 273 376 q 260 293 265 330 q 256 242 256 256 l 256 218 q 272 139 256 162 q 329 117 289 117 q 404 155 375 117 q 454 282 433 194 l 631 282 q 594 166 614 211 q 548 87 575 122 q 452 6 507 33 q 333 -21 398 -21 q 144 45 210 -21 q 78 237 78 112 l 78 258 q 82 313 78 283 q 90 376 85 343 l -47 376 l -6 466 "},"∂":{"x_min":52,"x_max":694,"ha":742,"o":"m 517 448 q 537 577 530 516 q 544 682 544 637 q 526 789 544 750 q 479 829 509 829 q 379 779 449 829 q 270 729 310 729 q 222 749 242 729 q 202 799 202 770 q 261 879 202 842 q 404 916 320 916 q 614 806 535 916 q 694 512 694 696 q 587 132 694 282 q 318 -17 481 -17 q 127 60 202 -17 q 52 258 52 138 q 130 481 52 392 q 325 571 209 571 q 441 541 395 571 q 517 448 487 511 m 476 351 q 449 471 476 429 q 374 514 423 514 q 260 423 305 514 q 215 191 215 332 q 241 71 215 112 q 317 30 267 30 q 431 120 386 30 q 476 351 476 211 "},"p":{"x_min":-83,"x_max":627,"ha":692,"o":"m 273 126 q 332 147 307 126 q 374 210 357 168 q 429 402 408 300 q 451 576 451 503 q 435 647 451 626 q 382 669 419 669 q 315 638 342 669 q 264 531 287 607 q 221 357 236 441 q 205 210 205 273 q 223 148 205 170 q 273 126 241 126 m 298 778 l 282 696 q 357 778 316 752 q 452 804 397 804 q 583 746 540 804 q 627 573 627 689 q 622 508 627 544 q 607 405 618 471 q 575 259 593 324 q 538 148 557 193 q 447 23 500 64 q 321 -18 393 -18 q 230 9 267 -18 q 175 91 193 37 l 101 -264 l -83 -264 l 140 778 l 298 778 "},"‡":{"x_min":-33,"x_max":692,"ha":694,"o":"m 132 -219 l 190 102 l -33 102 l -10 223 l 210 223 l 276 601 l 54 601 l 75 720 l 297 720 l 355 1044 l 515 1044 l 457 720 l 692 720 l 670 601 l 436 601 l 371 223 l 604 223 l 583 102 l 348 102 l 291 -219 l 132 -219 "},"√":{"x_min":49,"x_max":914,"ha":913,"o":"m 773 1149 l 914 1149 l 914 1062 l 844 1062 l 442 -28 l 375 -28 l 164 554 l 69 519 l 49 596 l 273 675 l 433 226 l 773 1149 "},"S":{"x_min":36,"x_max":743,"ha":779,"o":"m 43 376 l 226 376 q 224 361 225 370 q 220 296 220 316 q 246 164 220 203 q 333 126 273 126 q 433 166 395 126 q 472 271 472 206 q 335 468 472 362 l 328 473 q 174 628 212 564 q 136 772 136 691 q 217 992 136 914 q 448 1071 298 1071 q 667 1002 591 1071 q 743 805 743 934 q 741 770 743 790 q 738 722 740 749 l 554 722 q 557 768 556 751 q 558 795 558 786 q 528 893 558 860 q 441 927 499 927 q 352 893 386 927 q 319 806 319 859 q 345 725 319 763 q 452 624 372 687 q 479 603 461 617 q 672 311 672 455 q 580 64 672 154 q 327 -25 489 -25 q 109 48 183 -25 q 36 264 36 121 q 37 320 36 293 q 43 376 39 347 "},"/":{"x_min":-41,"x_max":453,"ha":427,"o":"m 61 -129 l -41 -129 l 349 1069 l 453 1069 l 61 -129 "},"y":{"x_min":-49,"x_max":641,"ha":611,"o":"m -49 -254 l -18 -120 q -13 -120 -16 -120 q 18 -123 8 -123 q 78 -99 59 -123 q 98 -26 98 -76 q 96 22 98 -12 q 95 30 96 28 l 42 778 l 223 778 l 233 210 l 448 778 l 641 778 l 259 -80 q 163 -231 207 -197 q 42 -265 119 -265 q 3 -262 24 -265 q -49 -254 -17 -260 "},"≈":{"x_min":121,"x_max":1038,"ha":1157,"o":"m 1038 404 l 1038 256 q 903 183 966 206 q 780 161 841 161 q 586 206 716 161 q 382 252 456 252 q 263 226 325 252 q 121 144 202 201 l 121 292 q 261 366 196 342 q 383 390 325 390 q 597 345 467 390 q 783 301 727 301 q 901 325 841 301 q 1038 404 961 349 m 1038 684 l 1038 535 q 904 464 966 486 q 782 442 843 442 q 588 486 718 442 q 382 531 458 531 q 266 507 326 531 q 121 424 207 483 l 121 572 q 259 645 193 621 q 383 670 325 670 q 598 625 468 670 q 783 581 728 581 q 899 604 840 581 q 1038 684 958 628 "},"g":{"x_min":-31,"x_max":664,"ha":692,"o":"m 483 778 l 664 778 l 497 -8 q 399 -220 462 -167 q 194 -273 335 -273 q 34 -228 93 -273 q -31 -103 -24 -184 l 139 -103 q 154 -140 139 -128 q 205 -152 170 -152 q 284 -112 258 -152 q 333 51 311 -73 q 274 -4 312 15 q 187 -25 236 -25 q 55 31 98 -25 q 12 204 12 88 q 16 276 12 236 q 30 372 20 316 q 62 516 43 450 q 101 629 80 582 q 191 755 138 714 q 316 796 244 796 q 407 768 370 796 q 462 686 444 740 l 483 778 m 365 652 q 306 629 332 652 q 263 567 279 607 q 209 377 229 478 q 189 201 189 276 q 204 130 189 151 q 255 109 219 109 q 313 131 288 109 q 356 197 338 153 q 379 266 367 225 q 404 367 390 308 q 425 480 418 430 q 433 559 433 529 q 415 628 433 604 q 365 652 398 652 "},"²":{"x_min":-18,"x_max":443,"ha":458,"o":"m 346 408 l -18 408 q 23 553 -11 490 q 139 685 58 617 q 206 735 154 698 q 285 801 257 772 q 311 841 302 820 q 321 885 321 863 q 304 934 321 917 q 257 952 288 952 q 203 923 221 952 q 182 836 184 895 l 65 836 q 116 984 66 934 q 264 1035 166 1035 q 395 995 348 1035 q 443 886 443 955 q 413 780 443 827 q 281 654 384 733 l 276 651 q 127 505 147 551 l 369 505 l 346 408 "},"ë":{"x_min":11,"x_max":607,"ha":672,"o":"m 421 492 q 431 549 428 523 q 435 592 435 575 q 415 652 435 632 q 356 672 395 672 q 275 632 304 672 q 228 492 246 592 l 421 492 m 377 259 l 547 259 q 464 45 535 116 q 263 -26 393 -26 q 73 30 135 -26 q 11 204 11 87 q 13 262 11 229 q 21 329 16 294 q 51 501 34 425 q 86 620 67 577 q 193 760 127 718 q 368 803 258 803 q 549 750 492 803 q 607 586 607 698 q 599 488 607 544 q 576 370 591 433 l 206 370 q 189 270 195 313 q 183 203 183 227 q 204 131 183 155 q 268 108 225 108 q 341 144 315 108 q 377 259 368 181 m 428 885 l 460 1031 l 604 1031 l 571 885 l 428 885 m 219 885 l 252 1031 l 395 1031 l 361 885 l 219 885 "},"–":{"x_min":-40,"x_max":676,"ha":694,"o":"m -40 339 l -16 445 l 676 445 l 654 339 l -40 339 "},"ƒ":{"x_min":-3,"x_max":654,"ha":694,"o":"m -3 -255 l 19 -99 q 58 -109 43 -106 q 87 -112 73 -112 q 136 -82 116 -112 q 165 5 155 -53 l 255 546 l 113 546 l 113 679 l 273 679 q 362 959 299 877 q 549 1042 426 1042 q 605 1035 580 1042 q 654 1016 630 1029 l 626 876 q 597 890 613 885 q 565 896 582 896 q 495 860 517 896 q 452 679 473 824 l 605 679 l 605 546 l 438 546 l 362 74 q 271 -196 330 -119 q 98 -273 211 -273 q 45 -268 70 -273 q -3 -255 20 -264 "},"J":{"x_min":-39,"x_max":624,"ha":607,"o":"m 426 1044 l 624 1044 l 450 216 q 361 28 422 84 q 185 -28 300 -28 q 17 22 74 -28 q -39 171 -39 73 q -34 236 -39 198 q -18 336 -29 273 l 146 336 q 131 228 135 262 q 127 181 127 194 q 140 136 127 152 q 179 121 154 121 q 224 141 209 121 q 255 231 240 161 l 426 1044 "},"Ã":{"x_min":-86,"x_max":705,"ha":730,"o":"m 278 418 l 438 418 l 454 919 l 278 418 m 113 0 l -86 0 l 353 1044 l 603 1044 l 627 0 l 436 0 l 436 268 l 219 268 l 113 0 m 392 1153 l 319 1153 q 368 1247 335 1214 q 447 1281 401 1281 q 480 1278 464 1281 q 510 1272 496 1276 l 544 1262 q 562 1258 553 1259 q 581 1257 571 1257 q 612 1266 599 1257 q 631 1295 624 1276 l 705 1295 q 653 1198 686 1229 q 570 1168 620 1168 q 546 1169 558 1168 q 522 1175 535 1171 l 487 1185 q 460 1193 468 1191 q 446 1195 452 1195 q 413 1184 426 1195 q 392 1153 399 1173 "},"©":{"x_min":75,"x_max":1083,"ha":1157,"o":"m 821 608 l 693 608 q 657 681 688 655 q 577 708 627 708 q 480 652 515 708 q 445 498 445 597 q 480 346 445 398 q 582 294 515 294 q 662 322 632 294 q 698 403 691 351 l 829 403 q 755 252 823 309 q 578 196 686 196 q 379 275 452 196 q 307 494 307 355 q 381 716 307 633 q 580 800 455 800 q 750 747 683 800 q 821 608 816 694 m 579 918 q 416 886 492 918 q 282 796 341 855 q 189 658 221 735 q 158 497 158 581 q 189 337 158 413 q 282 201 221 261 q 418 109 341 141 q 579 78 494 78 q 740 109 663 78 q 878 202 816 141 q 969 335 938 260 q 1000 497 1000 411 q 968 659 1000 582 q 877 794 936 735 q 741 886 816 855 q 579 918 665 918 m 577 1003 q 772 965 680 1003 q 937 854 864 927 q 1045 691 1008 783 q 1083 496 1083 599 q 1046 304 1083 393 q 937 144 1009 214 q 768 32 861 71 q 577 -7 676 -7 q 387 31 477 -7 q 223 142 296 69 q 112 306 150 214 q 75 496 75 397 q 112 689 75 598 q 223 855 150 781 q 385 965 294 927 q 577 1003 475 1003 "},"˘":{"x_min":254,"x_max":625,"ha":694,"o":"m 254 1036 l 330 1036 q 352 984 331 1001 q 417 967 374 967 q 494 983 463 967 q 546 1036 524 1000 l 625 1036 q 543 917 598 957 q 406 878 488 878 q 291 913 329 878 q 254 1020 254 948 l 254 1036 "},"≥":{"x_min":175,"x_max":983,"ha":1157,"o":"m 175 133 l 983 133 l 983 -1 l 175 -1 l 175 133 m 176 842 l 981 580 l 981 463 l 176 202 l 176 343 l 740 521 l 176 700 l 176 842 "},"D":{"x_min":-20,"x_max":783,"ha":823,"o":"m -20 0 l 199 1044 l 481 1044 q 708 978 633 1044 q 783 778 783 913 q 773 664 783 738 q 748 502 764 591 q 700 292 723 373 q 652 164 677 212 q 537 38 605 77 q 365 0 468 0 l -20 0 m 203 150 l 304 150 q 422 175 379 150 q 485 258 464 200 q 515 360 498 293 q 550 524 531 428 q 579 683 571 627 q 588 769 588 740 q 552 863 588 834 q 436 893 517 893 l 359 893 l 203 150 "},"ÿ":{"x_min":-49,"x_max":641,"ha":611,"o":"m -49 -254 l -18 -120 q -13 -120 -16 -120 q 18 -123 8 -123 q 78 -99 59 -123 q 98 -26 98 -76 q 96 22 98 -12 q 95 30 96 28 l 42 778 l 223 778 l 233 210 l 448 778 l 641 778 l 259 -80 q 163 -231 207 -197 q 42 -265 119 -265 q 3 -262 24 -265 q -49 -254 -17 -260 m 398 885 l 430 1031 l 574 1031 l 541 885 l 398 885 m 189 885 l 222 1031 l 365 1031 l 331 885 l 189 885 "},"ł":{"x_min":-32,"x_max":401,"ha":375,"o":"m -15 0 l 71 413 l -32 352 l -4 483 l 101 544 l 206 1042 l 388 1042 l 298 616 l 401 676 l 373 546 l 268 486 l 167 0 l -15 0 "},"Ł":{"x_min":-29,"x_max":572,"ha":635,"o":"m -9 0 l 78 416 l -29 355 l 4 513 l 110 574 l 208 1044 l 400 1044 l 315 637 l 513 749 l 480 589 l 282 477 l 216 172 l 572 172 l 531 0 l -9 0 "},"$":{"x_min":7,"x_max":666,"ha":694,"o":"m 336 651 l 388 897 q 303 862 335 894 q 271 777 271 829 q 287 711 271 742 q 336 651 303 680 m 297 140 q 384 185 354 147 q 414 287 414 222 q 399 346 414 318 q 351 405 384 374 l 297 140 m 14 354 l 172 354 q 170 329 171 343 q 170 284 170 315 q 183 193 170 224 q 231 146 197 162 l 294 451 q 144 596 189 527 q 100 747 100 664 q 176 950 100 878 q 393 1022 252 1022 l 412 1022 l 429 1104 l 501 1104 l 482 1013 q 619 934 573 998 q 666 762 666 870 q 665 744 666 754 q 663 714 664 734 l 510 714 q 511 729 511 721 q 512 752 512 737 q 497 839 512 806 q 453 886 482 872 l 395 606 q 553 461 509 526 q 598 313 598 396 q 516 85 598 171 q 298 0 435 0 q 284 1 294 0 q 269 2 274 2 l 241 -131 l 170 -131 l 199 8 q 53 92 99 27 q 7 279 7 157 q 8 320 7 302 q 14 354 10 338 "},"w":{"x_min":54,"x_max":957,"ha":942,"o":"m 92 0 l 54 778 l 226 778 l 231 215 l 427 778 l 577 778 l 580 202 l 775 778 l 957 778 l 654 0 l 452 0 l 451 484 l 280 0 l 92 0 "},"\\":{"x_min":81,"x_max":364,"ha":427,"o":"m 183 1069 l 364 -129 l 261 -129 l 81 1069 l 183 1069 "},"∫":{"x_min":33,"x_max":771,"ha":804,"o":"m 231 -171 q 313 262 301 -171 q 318 405 315 354 q 401 902 328 750 q 623 1054 473 1054 q 730 1020 690 1054 q 771 933 771 987 q 745 867 771 892 q 677 843 719 843 q 625 859 646 843 q 597 905 604 875 q 592 942 594 919 q 572 974 590 973 q 492 544 505 974 q 488 423 489 465 q 466 122 480 223 q 426 -47 453 21 q 326 -200 388 -147 q 180 -253 263 -253 q 74 -219 115 -253 q 33 -133 33 -186 q 59 -66 33 -91 q 130 -41 85 -41 q 188 -62 164 -41 q 212 -111 212 -83 q 216 -160 212 -150 q 231 -171 220 -171 "},"Ì":{"x_min":-18,"x_max":425,"ha":380,"o":"m 179 0 l -18 0 l 200 1044 l 398 1044 l 179 0 m 425 1143 l 344 1143 l 132 1300 l 300 1300 l 425 1143 "},"Ç":{"x_min":36,"x_max":761,"ha":807,"o":"m 498 338 l 680 338 q 567 66 653 157 q 337 -24 482 -24 q 111 45 187 -24 q 36 255 36 115 q 40 337 36 291 q 55 441 45 383 q 103 680 79 579 q 149 835 127 782 q 274 1013 200 958 q 459 1069 347 1069 q 690 998 619 1069 q 761 768 761 927 q 756 700 761 749 q 755 684 756 690 l 567 684 q 570 736 569 713 q 572 776 572 759 q 546 889 572 856 q 462 922 521 922 q 376 883 408 922 q 317 741 344 844 q 248 435 274 576 q 223 248 223 293 q 251 153 223 184 q 339 122 280 122 q 440 174 402 122 q 498 338 479 227 m 196 -146 l 247 0 l 325 0 l 302 -63 q 398 -101 366 -71 q 430 -180 430 -130 q 380 -296 430 -255 q 239 -338 330 -338 q 171 -330 211 -338 q 75 -307 132 -323 l 107 -219 q 177 -237 146 -231 q 233 -243 208 -243 q 282 -229 264 -243 q 300 -192 300 -215 q 275 -156 300 -167 q 196 -146 251 -146 "},"C":{"x_min":36,"x_max":761,"ha":807,"o":"m 498 338 l 680 338 q 567 66 653 157 q 337 -24 482 -24 q 111 45 187 -24 q 36 255 36 115 q 40 337 36 291 q 55 441 45 383 q 103 680 79 579 q 149 835 127 782 q 274 1013 200 958 q 459 1069 347 1069 q 690 998 619 1069 q 761 768 761 927 q 756 700 761 749 q 755 684 756 690 l 567 684 q 570 736 569 713 q 572 776 572 759 q 546 889 572 856 q 462 922 521 922 q 376 883 408 922 q 317 741 344 844 q 248 435 274 576 q 223 248 223 293 q 251 153 223 184 q 339 122 280 122 q 440 174 402 122 q 498 338 479 227 "},"!":{"x_min":22,"x_max":411,"ha":406,"o":"m 203 0 l 22 0 l 59 180 l 242 180 l 203 0 m 214 269 l 103 269 l 159 734 l 223 1044 l 411 1044 l 344 720 l 214 269 "},"ç":{"x_min":10,"x_max":599,"ha":652,"o":"m 548 294 q 458 52 529 129 q 254 -25 387 -25 q 70 32 129 -25 q 11 209 11 89 q 17 299 11 246 q 36 419 23 351 q 76 582 55 520 q 127 689 97 644 q 223 773 164 744 q 358 803 282 803 q 537 745 476 803 q 599 577 599 688 q 597 543 599 562 q 591 500 595 524 l 418 500 q 424 544 422 525 q 427 577 427 563 q 406 644 427 621 q 350 668 386 668 q 287 638 311 668 q 243 533 262 608 q 200 345 215 426 q 186 211 186 263 q 203 133 186 157 q 258 110 220 110 q 333 155 306 110 q 372 294 361 200 l 548 294 m 131 -146 l 182 0 l 260 0 l 237 -63 q 333 -101 301 -71 q 365 -180 365 -130 q 315 -296 365 -255 q 174 -338 265 -338 q 106 -330 146 -338 q 10 -307 67 -323 l 42 -219 q 112 -237 81 -231 q 168 -243 143 -243 q 217 -229 199 -243 q 235 -192 235 -215 q 210 -156 235 -167 q 131 -146 186 -146 "},"È":{"x_min":-20,"x_max":708,"ha":682,"o":"m -20 0 l 198 1044 l 708 1044 l 674 877 l 354 877 l 299 623 l 613 623 l 580 462 l 266 462 l 204 168 l 547 168 l 514 0 l -20 0 m 576 1143 l 495 1143 l 283 1300 l 451 1300 l 576 1143 "},"X":{"x_min":-86,"x_max":762,"ha":676,"o":"m 123 0 l -86 0 l 231 538 l 71 1044 l 273 1044 l 364 684 l 548 1044 l 762 1044 l 446 527 l 623 0 l 418 0 l 323 387 l 123 0 "},"ô":{"x_min":11,"x_max":619,"ha":686,"o":"m 11 221 q 17 304 11 254 q 36 419 23 354 q 78 588 57 529 q 127 690 98 646 q 223 774 164 745 q 360 803 282 803 q 554 741 490 803 q 619 559 619 680 q 612 470 619 521 q 594 358 606 419 q 552 199 575 265 q 499 87 528 133 q 405 3 465 32 q 266 -26 345 -26 q 74 35 138 -26 q 11 221 11 96 m 356 669 q 289 640 314 669 q 242 532 264 612 q 198 337 214 426 q 182 206 182 248 q 202 131 182 154 q 269 108 223 108 q 337 136 311 108 q 383 244 362 165 q 427 436 411 348 q 444 569 444 524 q 423 644 444 620 q 356 669 402 669 m 580 876 l 505 876 l 419 958 l 290 876 l 204 876 l 355 1035 l 496 1035 l 580 876 "},"đ":{"x_min":12,"x_max":814,"ha":692,"o":"m 338 0 l 356 81 q 281 0 322 25 q 187 -25 241 -25 q 55 31 98 -25 q 12 204 12 88 q 42 439 12 307 q 112 652 72 572 q 199 760 149 724 q 316 796 250 796 q 407 767 370 796 q 462 686 444 739 l 499 864 l 344 864 l 364 956 l 519 956 l 537 1042 l 723 1042 l 705 956 l 814 956 l 794 864 l 683 864 l 498 0 l 338 0 m 365 652 q 300 624 327 652 q 254 540 273 597 q 206 358 223 451 q 189 201 189 265 q 204 130 189 151 q 255 109 219 109 q 318 135 292 109 q 365 222 343 161 q 414 408 395 310 q 433 559 433 507 q 415 628 433 604 q 365 652 398 652 "},"}":{"x_min":97,"x_max":589,"ha":694,"o":"m 97 1002 l 143 1002 q 263 993 217 1002 q 339 968 308 985 q 394 905 378 946 q 410 771 410 865 l 410 600 q 444 468 410 507 q 561 429 479 429 q 574 430 565 429 q 589 431 584 431 l 589 289 l 563 289 q 444 251 479 289 q 410 119 410 213 l 410 -50 q 394 -187 410 -147 q 339 -248 378 -226 q 261 -273 307 -265 q 148 -281 216 -281 q 123 -280 140 -281 q 97 -280 106 -280 l 97 -138 q 114 -138 103 -138 q 128 -139 124 -139 q 221 -113 197 -139 q 246 -4 246 -87 l 246 157 q 276 300 246 258 q 386 359 306 342 q 276 420 306 377 q 246 562 246 462 l 246 726 q 221 835 246 809 q 128 861 197 861 q 114 860 124 861 q 97 860 103 860 l 97 1002 "},"â":{"x_min":-17,"x_max":612,"ha":676,"o":"m 389 375 q 332 350 369 367 q 164 194 164 279 q 183 127 164 150 q 241 104 203 104 q 330 155 299 104 q 389 375 361 206 m 341 60 q 269 -3 308 17 q 180 -24 230 -24 q 34 30 86 -24 q -17 185 -17 85 q 39 358 -17 293 q 216 451 95 422 q 240 456 224 453 q 433 598 433 502 q 411 653 433 633 q 352 673 390 673 q 276 645 303 673 q 238 555 250 617 l 64 555 q 154 742 81 680 q 356 804 226 804 q 544 754 477 804 q 612 614 612 704 q 609 581 612 601 q 602 537 607 561 l 512 105 q 505 60 508 88 q 500 0 502 33 l 333 0 l 341 60 m 576 876 l 501 876 l 415 958 l 286 876 l 200 876 l 351 1035 l 492 1035 l 576 876 "},"ø":{"x_min":-47.46875,"x_max":672.890625,"ha":686,"o":"m 445 512 l 185 144 q 215 112 195 122 q 267 102 235 102 q 442 500 373 102 l 445 512 m 181 255 l 443 628 q 410 662 431 651 q 358 674 390 674 q 189 300 257 674 q 181 255 183 270 m -47 -53 l 43 75 q 18 138 26 104 q 10 209 10 171 q 12 255 10 231 q 18 307 14 279 q 51 494 33 413 q 90 620 70 575 q 197 759 131 714 q 363 804 264 804 q 450 793 409 804 q 528 763 491 783 l 603 870 l 672 821 l 588 700 q 612 638 605 671 q 620 563 620 605 q 618 520 620 543 q 613 467 616 497 q 581 295 601 374 q 538 161 562 216 q 430 17 494 60 q 264 -26 366 -26 q 175 -16 214 -26 q 105 12 136 -7 l 21 -105 l -47 -53 "},"Ä":{"x_min":-86,"x_max":705,"ha":730,"o":"m 278 418 l 438 418 l 454 919 l 278 418 m 113 0 l -86 0 l 353 1044 l 603 1044 l 627 0 l 436 0 l 436 268 l 219 268 l 113 0 m 529 1150 l 561 1296 l 705 1296 l 672 1150 l 529 1150 m 320 1150 l 353 1296 l 496 1296 l 462 1150 l 320 1150 "},"‰":{"x_min":61,"x_max":1505,"ha":1565,"o":"m 1210 241 q 1226 115 1210 147 q 1287 84 1243 84 q 1351 115 1333 84 q 1369 239 1369 146 q 1350 361 1369 327 q 1285 395 1332 395 q 1226 361 1243 395 q 1210 241 1210 328 m 1074 243 q 1123 439 1074 379 q 1285 499 1173 499 q 1453 440 1402 499 q 1505 244 1505 381 q 1452 43 1505 106 q 1285 -20 1400 -20 q 1123 40 1172 -20 q 1074 243 1074 101 m 715 241 q 731 116 715 148 q 793 84 748 84 q 856 114 839 84 q 874 239 874 145 q 855 361 874 327 q 790 395 836 395 q 731 361 748 395 q 715 241 715 328 m 579 243 q 628 439 579 379 q 790 499 678 499 q 958 440 907 499 q 1010 244 1010 381 q 957 43 1010 106 q 790 -20 905 -20 q 628 40 677 -20 q 579 243 579 101 m 197 792 q 213 667 197 699 q 276 636 230 636 q 338 666 321 636 q 356 792 356 697 q 337 913 356 880 q 272 947 319 947 q 213 913 230 947 q 197 792 197 880 m 61 797 q 110 992 61 933 q 273 1051 160 1051 q 441 992 390 1051 q 492 798 492 934 q 439 595 492 659 q 273 532 387 532 q 110 593 160 532 q 61 797 61 654 m 244 -20 l 721 1051 l 824 1051 l 346 -20 l 244 -20 "},"N":{"x_min":-20,"x_max":849,"ha":833,"o":"m 170 0 l -20 0 l 199 1044 l 407 1044 l 504 469 q 515 380 511 433 q 521 262 519 328 l 529 262 q 541 397 534 336 q 556 499 548 458 l 657 1044 l 849 1044 l 632 0 l 417 0 l 329 591 q 317 696 322 643 q 312 800 313 749 l 302 801 q 294 685 300 745 q 276 562 287 626 l 170 0 "},"—":{"x_min":-40,"x_max":1371,"ha":1389,"o":"m 1371 445 l 1349 339 l -40 339 l -16 445 l 1371 445 "},"2":{"x_min":-28,"x_max":671,"ha":694,"o":"m 524 0 l -28 0 q 33 241 -19 136 q 209 459 87 346 q 311 543 232 480 q 431 654 389 605 q 473 721 459 686 q 487 793 487 757 q 462 876 487 848 q 389 905 437 905 q 307 858 335 905 q 275 714 279 811 l 95 714 q 174 960 98 878 q 399 1043 250 1043 q 599 977 527 1043 q 671 797 671 912 q 626 622 671 699 q 425 412 582 544 l 421 408 q 192 161 220 239 l 560 161 l 524 0 "},"ü":{"x_min":0,"x_max":660,"ha":686,"o":"m 479 778 l 660 778 l 494 0 l 326 0 l 343 66 q 249 -1 296 20 q 152 -24 202 -24 q 39 13 79 -24 q 0 123 0 51 q 3 160 0 138 q 13 219 6 182 l 133 778 l 314 778 l 199 234 q 193 200 195 215 q 191 173 191 185 q 206 124 191 141 q 253 108 222 108 q 323 141 296 108 q 367 251 350 175 l 479 778 m 443 885 l 475 1031 l 619 1031 l 586 885 l 443 885 m 234 885 l 267 1031 l 410 1031 l 376 885 l 234 885 "},"":{"x_min":-18,"x_max":754,"ha":726,"o":"m 349 0 l 570 1042 l 754 1042 l 531 0 l 349 0 m -18 0 l 120 659 l 47 659 l 71 778 l 147 778 l 173 905 q 232 1018 191 986 q 360 1051 274 1051 q 397 1048 373 1051 q 461 1040 420 1046 l 432 910 q 421 912 427 911 q 402 913 415 913 q 359 900 372 913 q 339 856 345 888 l 322 778 l 404 778 l 379 659 l 304 659 l 164 0 l -18 0 "},"Ó":{"x_min":35,"x_max":778,"ha":815,"o":"m 473 922 q 384 882 418 922 q 321 741 350 843 q 246 438 275 577 q 217 262 217 300 q 247 157 217 192 q 338 123 277 123 q 440 169 403 123 q 514 369 477 216 q 571 638 550 518 q 593 801 593 758 q 562 891 593 860 q 473 922 532 922 m 35 256 q 39 341 35 295 q 54 443 44 388 q 102 677 77 575 q 150 834 127 780 q 278 1013 203 957 q 466 1069 353 1069 q 701 999 625 1069 q 778 784 778 929 q 775 722 778 755 q 768 655 773 690 q 730 439 752 541 q 683 264 708 338 q 549 43 631 110 q 333 -24 468 -24 q 110 47 186 -24 q 35 256 35 118 m 514 1143 l 440 1143 l 559 1300 l 716 1300 l 514 1143 "},"˜":{"x_min":229,"x_max":615,"ha":694,"o":"m 302 888 l 229 888 q 278 982 245 949 q 357 1016 311 1016 q 390 1013 374 1016 q 420 1007 406 1011 l 454 997 q 472 993 463 994 q 491 992 481 992 q 522 1001 509 992 q 541 1030 534 1011 l 615 1030 q 563 933 596 964 q 480 903 530 903 q 456 904 468 903 q 432 910 445 906 l 397 920 q 370 928 378 926 q 356 930 362 930 q 323 919 336 930 q 302 888 309 908 "},"ˇ":{"x_min":252,"x_max":627,"ha":694,"o":"m 252 1035 l 326 1035 l 412 954 l 540 1035 l 627 1035 l 475 878 l 334 878 l 252 1035 "},"Ÿ":{"x_min":54,"x_max":797,"ha":703,"o":"m 350 0 l 156 0 l 245 426 l 54 1044 l 266 1044 l 345 711 q 351 676 347 700 q 362 613 356 651 q 389 685 376 652 q 413 736 403 717 l 570 1044 l 797 1044 l 438 430 l 350 0 m 507 1150 l 539 1296 l 683 1296 l 650 1150 l 507 1150 m 298 1150 l 331 1296 l 474 1296 l 440 1150 l 298 1150 "},"€":{"x_min":-47,"x_max":721,"ha":694,"o":"m -6 466 l 105 466 q 118 533 109 489 q 123 558 122 550 l 8 558 l 48 648 l 143 648 q 166 738 156 700 q 189 808 177 777 q 301 984 230 927 q 479 1042 372 1042 q 660 976 600 1042 q 721 779 721 911 q 719 740 721 760 q 716 703 718 721 l 541 702 q 543 717 541 706 q 551 804 551 772 q 532 879 551 854 q 475 904 513 904 q 404 870 429 904 q 350 722 379 837 q 335 661 344 701 q 332 648 333 652 l 576 648 l 536 558 l 311 558 q 295 483 304 531 q 292 466 293 472 l 495 466 l 455 376 l 273 376 q 260 293 265 330 q 256 242 256 256 l 256 218 q 272 139 256 162 q 329 117 289 117 q 404 155 375 117 q 454 282 433 194 l 631 282 q 594 166 614 211 q 548 87 575 122 q 452 6 507 33 q 333 -21 398 -21 q 144 45 210 -21 q 78 237 78 112 l 78 258 q 82 313 78 283 q 90 376 85 343 l -47 376 l -6 466 "},"ß":{"x_min":-25,"x_max":642,"ha":675,"o":"m -25 0 l 139 800 q 229 993 167 935 q 407 1051 291 1051 q 579 987 516 1051 q 642 814 642 924 q 601 641 642 703 q 486 578 560 579 q 555 515 534 554 q 577 411 577 476 q 506 103 577 229 q 335 -22 435 -22 q 266 -12 298 -22 q 212 15 234 -2 l 243 149 q 269 138 258 141 q 291 135 281 135 q 329 150 315 135 q 358 207 344 165 q 393 341 380 271 q 406 461 406 412 q 388 516 406 496 q 334 540 370 535 l 357 647 q 361 647 358 647 q 375 645 371 645 q 447 698 421 645 q 474 845 474 751 q 456 901 474 881 q 407 921 439 921 q 347 893 368 921 q 304 758 326 866 l 144 0 l -25 0 "},"s":{"x_min":-17,"x_max":559,"ha":607,"o":"m -10 277 l 144 276 q 143 253 143 265 q 143 222 143 241 q 164 139 143 165 q 232 113 186 113 q 298 135 276 113 q 320 201 320 157 q 225 327 320 257 l 217 333 q 95 451 126 399 q 65 574 65 503 q 132 744 65 685 q 324 804 199 804 q 499 748 439 804 q 559 589 559 693 q 558 565 559 586 q 557 528 557 545 l 401 528 l 401 550 q 381 648 401 622 q 312 674 362 674 q 256 652 277 674 q 236 594 236 631 q 317 478 236 534 q 350 456 339 464 q 460 348 426 402 q 494 230 494 294 q 424 44 494 110 q 227 -22 354 -22 q 43 33 104 -22 q -17 201 -17 89 q -15 238 -17 220 q -10 277 -13 257 "},"?":{"x_min":142,"x_max":671,"ha":690,"o":"m 323 0 l 142 0 l 179 180 l 361 180 l 323 0 m 361 283 l 201 283 q 231 432 204 368 q 324 565 259 496 q 368 608 339 580 q 489 821 489 728 q 467 904 489 879 q 397 929 446 929 q 333 897 355 929 q 308 802 310 865 l 142 802 q 210 1000 142 931 q 408 1069 279 1069 q 600 1002 529 1069 q 671 821 671 935 q 490 495 671 660 q 469 475 477 482 q 385 376 405 416 q 361 283 365 337 "},"c":{"x_min":11,"x_max":599,"ha":652,"o":"m 548 294 q 458 52 529 129 q 254 -25 387 -25 q 70 32 129 -25 q 11 209 11 89 q 17 299 11 246 q 36 419 23 351 q 76 582 55 520 q 127 689 97 644 q 223 773 164 744 q 358 803 282 803 q 537 745 476 803 q 599 577 599 688 q 597 543 599 562 q 591 500 595 524 l 418 500 q 424 544 422 525 q 427 577 427 563 q 406 644 427 621 q 350 668 386 668 q 287 638 311 668 q 243 533 262 608 q 200 345 215 426 q 186 211 186 263 q 203 133 186 157 q 258 110 220 110 q 333 155 306 110 q 372 294 361 200 l 548 294 "},"¶":{"x_min":27,"x_max":668,"ha":694,"o":"m 668 1003 l 668 928 l 591 928 l 591 0 l 487 0 l 487 928 l 380 928 l 380 0 l 276 0 l 276 532 q 94 600 162 536 q 27 766 27 664 q 99 938 27 873 q 292 1003 172 1003 l 668 1003 "},"•":{"x_min":208,"x_max":609,"ha":819,"o":"m 208 516 q 266 657 208 599 q 409 716 325 716 q 550 657 491 716 q 609 516 609 598 q 549 374 609 433 q 407 315 490 315 q 266 373 324 315 q 208 516 208 432 "},"(":{"x_min":52,"x_max":506,"ha":457,"o":"m 170 -280 q 80 -55 109 -172 q 52 197 52 61 q 138 651 52 441 q 398 1042 224 862 l 506 1042 q 394 860 444 964 q 302 621 344 757 q 237 342 259 479 q 215 82 215 204 q 229 -109 215 -19 q 274 -280 244 -200 l 170 -280 "},"◊":{"x_min":4,"x_max":682,"ha":686,"o":"m 343 956 l 81 402 l 343 -157 l 604 402 l 343 956 m 343 1122 l 682 402 l 343 -323 l 4 402 l 343 1122 "},"­":{"x_min":16,"x_max":384,"ha":456,"o":"m 350 314 l 16 314 l 49 471 l 384 471 l 350 314 "},":":{"x_min":-10,"x_max":331,"ha":378,"o":"m 292 586 l 111 586 l 148 766 l 331 766 l 292 586 m 171 0 l -10 0 l 27 180 l 209 180 l 171 0 "},"Û":{"x_min":35,"x_max":847,"ha":829,"o":"m 694 318 q 648 149 669 198 q 594 65 627 100 q 488 -2 552 20 q 343 -26 424 -26 q 118 42 202 -26 q 35 225 35 111 q 41 292 35 251 q 62 404 47 332 l 200 1044 l 393 1044 l 246 351 q 234 285 238 313 q 230 237 230 257 q 263 152 230 183 q 355 121 297 121 q 448 158 416 121 q 504 320 479 196 l 656 1044 l 847 1044 l 694 318 m 716 1141 l 641 1141 l 555 1223 l 426 1141 l 340 1141 l 491 1300 l 632 1300 l 716 1141 "},"V":{"x_min":102,"x_max":811,"ha":733,"o":"m 360 0 l 116 0 l 102 1044 l 294 1044 l 278 395 q 270 203 278 376 q 266 132 268 157 q 297 239 278 181 q 341 365 315 296 l 601 1044 l 811 1044 l 360 0 "}," ":{"x_min":0,"x_max":0,"ha":694},"@":{"x_min":61,"x_max":1329,"ha":1389,"o":"m 791 183 q 705 99 753 126 q 589 73 656 73 q 426 131 482 73 q 371 303 371 189 q 465 576 371 466 q 698 686 560 686 q 792 663 752 686 q 858 597 832 641 l 894 663 l 1015 663 l 915 257 q 911 242 913 250 q 910 230 910 234 q 926 194 910 206 q 975 182 943 182 q 1030 196 1001 182 q 1084 234 1059 209 q 1172 360 1142 288 q 1203 520 1203 433 q 1077 788 1203 683 q 752 893 951 893 q 574 869 657 893 q 425 801 492 846 q 248 607 310 724 q 186 353 186 491 q 326 20 186 145 q 701 -104 466 -104 q 915 -70 811 -104 q 1110 25 1020 -37 l 1166 -53 q 946 -170 1062 -131 q 703 -210 830 -210 q 464 -177 573 -210 q 270 -79 355 -144 q 113 109 165 2 q 61 352 61 216 q 96 568 61 465 q 201 755 132 671 q 442 940 301 877 q 756 1004 583 1004 q 971 973 871 1004 q 1147 885 1072 942 q 1283 723 1238 814 q 1329 517 1329 632 q 1284 310 1329 405 q 1156 149 1240 216 q 1053 90 1109 111 q 936 70 997 70 q 828 99 865 70 q 791 183 792 128 m 825 474 q 786 558 816 529 q 706 587 755 587 q 571 502 628 587 q 515 300 515 418 q 542 205 515 238 q 622 173 569 173 q 724 215 678 173 q 788 327 771 258 l 825 474 "},"¾":{"x_min":5,"x_max":1082,"ha":1104,"o":"m 1082 576 l 995 205 l 1061 205 l 1041 123 l 974 123 l 945 0 l 830 0 l 859 123 l 660 123 l 679 215 l 940 576 l 1082 576 m 761 205 l 882 205 l 950 462 l 944 462 q 921 426 933 444 q 896 391 909 408 l 761 205 m 309 -20 l 205 -20 l 793 1051 l 899 1051 l 309 -20 m 13 644 l 123 644 q 122 633 123 640 q 118 577 118 595 q 130 526 118 542 q 169 511 142 511 q 231 544 210 511 q 252 644 252 578 q 228 701 252 684 q 151 718 205 718 l 142 718 l 159 791 l 169 791 l 184 791 q 275 818 246 791 q 304 904 304 845 q 289 942 304 928 q 249 956 274 956 q 200 933 218 956 q 177 867 182 911 l 68 867 q 121 990 74 946 q 248 1035 168 1035 q 371 998 328 1035 q 415 894 415 962 q 384 791 415 831 q 299 741 353 750 q 353 697 336 722 q 370 634 370 671 q 318 484 370 537 q 170 432 266 432 q 48 470 91 432 q 5 578 5 508 q 7 604 5 589 q 13 644 9 620 "},"i":{"x_min":-28,"x_max":376,"ha":349,"o":"m 161 887 l 192 1042 l 376 1042 l 342 887 l 161 887 m -28 0 l 137 778 l 319 778 l 153 0 l -28 0 "},"≤":{"x_min":175,"x_max":983,"ha":1157,"o":"m 175 133 l 983 133 l 983 -1 l 175 -1 l 175 133 m 981 842 l 981 700 l 416 521 l 981 343 l 981 202 l 175 463 l 175 580 l 981 842 "},"m":{"x_min":-31,"x_max":972,"ha":1031,"o":"m 151 0 l -31 0 l 134 778 l 302 778 l 287 711 q 380 779 333 756 q 475 802 427 802 q 573 778 537 802 q 623 704 608 754 q 722 778 674 754 q 820 802 770 802 q 933 764 894 802 q 972 654 972 726 q 968 614 972 637 q 959 560 965 591 l 839 0 l 658 0 l 773 543 q 781 583 779 570 q 783 604 783 595 q 766 653 783 636 q 719 670 750 670 q 648 636 675 670 q 605 528 621 603 l 492 0 l 315 0 l 430 543 q 438 583 436 570 q 439 604 439 595 q 423 653 439 636 q 376 670 407 670 q 305 636 332 670 q 262 528 278 603 l 151 0 "},"ž":{"x_min":-65,"x_max":552,"ha":543,"o":"m 411 0 l -65 0 l -33 151 l 311 638 l 56 638 l 86 778 l 542 778 l 514 651 l 158 147 l 441 147 l 411 0 m 177 1035 l 251 1035 l 337 954 l 465 1035 l 552 1035 l 400 878 l 259 878 l 177 1035 "},"á":{"x_min":-17,"x_max":612,"ha":676,"o":"m 389 375 q 332 350 369 367 q 164 194 164 279 q 183 127 164 150 q 241 104 203 104 q 330 155 299 104 q 389 375 361 206 m 341 60 q 269 -3 308 17 q 180 -24 230 -24 q 34 30 86 -24 q -17 185 -17 85 q 39 358 -17 293 q 216 451 95 422 q 240 456 224 453 q 433 598 433 502 q 411 653 433 633 q 352 673 390 673 q 276 645 303 673 q 238 555 250 617 l 64 555 q 154 742 81 680 q 356 804 226 804 q 544 754 477 804 q 612 614 612 704 q 609 581 612 601 q 602 537 607 561 l 512 105 q 505 60 508 88 q 500 0 502 33 l 333 0 l 341 60 m 381 878 l 307 878 l 426 1035 l 583 1035 l 381 878 "},"×":{"x_min":187,"x_max":989,"ha":1157,"o":"m 281 816 l 587 510 l 893 816 l 989 721 l 683 414 l 989 108 l 893 14 l 587 320 l 281 14 l 187 108 l 493 414 l 187 721 l 281 816 "},"İ":{"x_min":-18,"x_max":436,"ha":380,"o":"m 179 0 l -18 0 l 200 1044 l 398 1044 l 179 0 m 257 1161 l 290 1318 l 436 1318 l 401 1161 l 257 1161 "},"K":{"x_min":-18,"x_max":835,"ha":717,"o":"m 299 612 l 609 1044 l 835 1044 l 463 553 l 641 0 l 433 0 l 315 401 l 233 291 l 173 0 l -18 0 l 200 1044 l 390 1044 l 299 612 "},"7":{"x_min":85,"x_max":717,"ha":694,"o":"m 278 0 l 85 0 q 241 458 135 238 q 495 862 346 679 l 120 862 l 154 1029 l 717 1029 l 689 887 q 437 465 540 686 q 278 0 335 245 "},"¨":{"x_min":230,"x_max":615,"ha":694,"o":"m 439 885 l 471 1031 l 615 1031 l 582 885 l 439 885 m 230 885 l 263 1031 l 406 1031 l 372 885 l 230 885 "},"Y":{"x_min":54,"x_max":797,"ha":703,"o":"m 350 0 l 156 0 l 245 426 l 54 1044 l 266 1044 l 345 711 q 351 676 347 700 q 362 613 356 651 q 389 685 376 652 q 413 736 403 717 l 570 1044 l 797 1044 l 438 430 l 350 0 "},"E":{"x_min":-20,"x_max":708,"ha":682,"o":"m -20 0 l 198 1044 l 708 1044 l 674 877 l 354 877 l 299 623 l 613 623 l 580 462 l 266 462 l 204 168 l 547 168 l 514 0 l -20 0 "},"Ô":{"x_min":35,"x_max":778,"ha":815,"o":"m 473 922 q 384 882 418 922 q 321 741 350 843 q 246 438 275 577 q 217 262 217 300 q 247 157 217 192 q 338 123 277 123 q 440 169 403 123 q 514 369 477 216 q 571 638 550 518 q 593 801 593 758 q 562 891 593 860 q 473 922 532 922 m 35 256 q 39 341 35 295 q 54 443 44 388 q 102 677 77 575 q 150 834 127 780 q 278 1013 203 957 q 466 1069 353 1069 q 701 999 625 1069 q 778 784 778 929 q 775 722 778 755 q 768 655 773 690 q 730 439 752 541 q 683 264 708 338 q 549 43 631 110 q 333 -24 468 -24 q 110 47 186 -24 q 35 256 35 118 m 709 1141 l 634 1141 l 548 1223 l 419 1141 l 333 1141 l 484 1300 l 625 1300 l 709 1141 "},"Ï":{"x_min":-18,"x_max":522,"ha":380,"o":"m 179 0 l -18 0 l 200 1044 l 398 1044 l 179 0 m 346 1150 l 378 1296 l 522 1296 l 489 1150 l 346 1150 m 137 1150 l 170 1296 l 313 1296 l 279 1150 l 137 1150 "},"‹":{"x_min":40,"x_max":337,"ha":399,"o":"m 227 121 l 40 339 l 69 478 l 337 672 l 306 507 l 142 394 l 259 266 l 227 121 "},"±":{"x_min":172,"x_max":985,"ha":1157,"o":"m 172 134 l 985 134 l 985 -1 l 172 -1 l 172 134 m 510 829 l 647 829 l 647 608 l 985 608 l 985 473 l 647 473 l 647 253 l 510 253 l 510 473 l 172 473 l 172 608 l 510 608 l 510 829 "},"ì":{"x_min":-28,"x_max":353,"ha":349,"o":"m -28 0 l 137 778 l 319 778 l 153 0 l -28 0 m 353 878 l 272 878 l 60 1035 l 228 1035 l 353 878 "},"|":{"x_min":278,"x_max":418,"ha":694,"o":"m 278 1061 l 418 1061 l 418 -328 l 278 -328 l 278 1061 "},"§":{"x_min":0,"x_max":649.0625,"ha":694,"o":"m 370 250 q 438 282 414 258 q 463 341 463 306 q 450 389 463 364 q 406 448 437 413 l 282 587 q 210 557 236 581 q 184 499 184 534 q 197 448 184 474 q 242 388 211 422 l 370 250 m 438 160 q 475 81 463 119 q 488 5 488 43 q 420 -169 488 -103 q 240 -235 353 -235 q 61 -177 123 -235 q 0 -10 0 -119 q 0 19 0 9 q 1 38 0 29 l 151 38 q 150 23 150 31 q 149 1 149 15 q 169 -78 149 -54 q 235 -103 189 -103 q 297 -78 274 -103 q 320 -12 320 -53 q 300 55 320 20 q 234 141 281 90 l 140 242 q 46 367 71 316 q 22 476 22 418 q 70 614 22 562 q 209 678 118 666 q 172 756 184 719 q 160 828 160 794 q 226 1005 160 939 q 403 1072 292 1072 q 587 1017 526 1072 q 649 852 649 962 q 648 820 649 831 q 646 800 648 809 l 496 800 q 497 840 496 818 q 497 845 497 844 q 475 916 497 892 q 409 940 453 940 q 350 915 373 940 q 328 849 328 890 q 346 784 328 818 q 413 697 365 750 l 507 594 q 600 471 575 522 q 626 362 626 419 q 577 222 626 274 q 438 160 529 170 "},"q":{"x_min":12,"x_max":664,"ha":692,"o":"m 365 652 q 306 629 332 652 q 263 567 279 607 q 209 377 229 478 q 189 201 189 276 q 204 130 189 151 q 255 109 219 109 q 313 131 288 109 q 356 197 338 153 q 379 266 367 225 q 404 367 390 308 q 425 480 418 430 q 433 559 433 529 q 415 628 433 604 q 365 652 398 652 m 259 -264 l 324 49 q 266 -6 300 12 q 189 -25 232 -25 q 55 31 99 -25 q 12 204 12 88 q 16 276 12 236 q 30 372 20 316 q 62 516 43 450 q 101 629 80 582 q 191 755 138 714 q 316 796 244 796 q 407 768 370 796 q 462 686 444 740 l 480 778 l 664 778 l 441 -264 l 259 -264 "},"b":{"x_min":-29,"x_max":623,"ha":692,"o":"m 269 126 q 328 148 302 126 q 371 210 355 170 q 425 400 405 299 q 446 576 446 501 q 430 647 446 626 q 379 669 415 669 q 321 646 346 669 q 278 580 295 624 q 255 511 267 552 q 230 410 244 469 q 208 294 215 342 q 200 218 200 245 q 218 149 200 173 q 269 126 236 126 m 376 1042 l 308 728 q 367 784 332 765 q 445 803 402 803 q 579 746 535 803 q 623 573 623 689 q 618 501 623 541 q 604 405 614 461 q 572 261 591 327 q 533 148 554 195 q 443 22 496 63 q 318 -18 390 -18 q 227 9 264 -18 q 172 91 190 37 l 154 0 l -29 0 l 194 1042 l 376 1042 "},"®":{"x_min":75,"x_max":1083,"ha":1157,"o":"m 505 701 l 505 539 l 572 539 q 660 557 632 539 q 688 617 688 576 q 658 680 688 660 q 565 701 628 701 l 505 701 m 369 787 l 588 787 q 768 746 708 787 q 828 626 828 706 q 795 531 828 570 q 705 478 763 492 l 830 228 l 679 228 l 572 457 l 505 457 l 505 228 l 369 228 l 369 787 m 579 918 q 419 887 492 918 q 286 799 345 857 q 191 659 224 737 q 158 498 158 581 q 189 339 158 414 q 279 205 220 263 q 416 110 339 143 q 577 78 494 78 q 735 109 659 78 q 875 201 812 141 q 967 333 934 257 q 1000 490 1000 409 q 969 655 1000 580 q 880 791 939 731 q 742 886 818 854 q 579 918 666 918 m 577 1003 q 774 964 682 1003 q 939 851 867 925 q 1046 689 1009 780 q 1083 496 1083 598 q 1045 301 1083 393 q 934 140 1007 210 q 769 30 861 68 q 577 -7 676 -7 q 384 32 476 -7 q 219 145 292 71 q 111 307 148 216 q 75 496 75 397 q 93 631 75 566 q 148 759 111 697 q 329 938 216 874 q 577 1003 441 1003 "},"L":{"x_min":-18,"x_max":561,"ha":625,"o":"m -18 0 l 200 1044 l 390 1044 l 208 172 l 561 172 l 522 0 l -18 0 "}," ":{"x_min":0,"x_max":0,"ha":347},"∑":{"x_min":28,"x_max":968,"ha":997,"o":"m 45 999 l 932 999 l 932 819 l 336 819 l 757 381 l 335 -87 l 968 -87 l 968 -267 l 28 -267 l 28 -150 l 501 373 l 45 841 l 45 999 "},"À":{"x_min":-86,"x_max":627,"ha":730,"o":"m 278 418 l 438 418 l 454 919 l 278 418 m 113 0 l -86 0 l 353 1044 l 603 1044 l 627 0 l 436 0 l 436 268 l 219 268 l 113 0 m 608 1143 l 527 1143 l 315 1300 l 483 1300 l 608 1143 "},"+":{"x_min":172,"x_max":985,"ha":1157,"o":"m 510 828 l 647 828 l 647 482 l 985 482 l 985 347 l 647 347 l 647 0 l 510 0 l 510 347 l 172 347 l 172 482 l 510 482 l 510 828 "},"½":{"x_min":85,"x_max":1089,"ha":1104,"o":"m 997 0 l 648 0 q 687 135 654 76 q 798 257 721 194 q 862 305 813 270 q 937 367 912 340 q 964 404 955 385 q 974 444 974 424 q 958 491 974 475 q 912 508 942 508 q 860 480 878 508 q 840 401 842 453 l 726 401 q 776 538 728 492 q 918 585 824 585 q 1043 547 997 585 q 1089 445 1089 510 q 1061 348 1089 392 q 934 230 1033 304 l 930 227 q 788 90 806 133 l 1019 90 l 997 0 m 309 -20 l 205 -20 l 793 1051 l 899 1051 l 309 -20 m 242 449 l 126 449 l 224 874 q 161 866 195 869 q 85 861 127 863 l 99 930 q 227 960 180 936 q 296 1031 274 984 l 378 1031 l 242 449 "},"Ë":{"x_min":-20,"x_max":708,"ha":682,"o":"m -20 0 l 198 1044 l 708 1044 l 674 877 l 354 877 l 299 623 l 613 623 l 580 462 l 266 462 l 204 168 l 547 168 l 514 0 l -20 0 m 497 1150 l 529 1296 l 673 1296 l 640 1150 l 497 1150 m 288 1150 l 321 1296 l 464 1296 l 430 1150 l 288 1150 "},"'":{"x_min":54,"x_max":185,"ha":239,"o":"m 54 975 l 185 975 l 185 596 l 54 596 l 54 975 "},"Š":{"x_min":36,"x_max":743,"ha":779,"o":"m 43 376 l 226 376 q 224 361 225 370 q 220 296 220 316 q 246 164 220 203 q 333 126 273 126 q 433 166 395 126 q 472 271 472 206 q 335 468 472 362 l 328 473 q 174 628 212 564 q 136 772 136 691 q 217 992 136 914 q 448 1071 298 1071 q 667 1002 591 1071 q 743 805 743 934 q 741 770 743 790 q 738 722 740 749 l 554 722 q 557 768 556 751 q 558 795 558 786 q 528 893 558 860 q 441 927 499 927 q 352 893 386 927 q 319 806 319 859 q 345 725 319 763 q 452 624 372 687 q 479 603 461 617 q 672 311 672 455 q 580 64 672 154 q 327 -25 489 -25 q 109 48 183 -25 q 36 264 36 121 q 37 320 36 293 q 43 376 39 347 m 359 1300 l 433 1300 l 519 1219 l 647 1300 l 734 1300 l 582 1143 l 441 1143 l 359 1300 "},"˛":{"x_min":97,"x_max":334,"ha":694,"o":"m 301 0 q 239 -70 258 -39 q 221 -133 221 -102 q 233 -174 221 -161 q 272 -187 245 -187 l 334 -187 l 307 -317 l 282 -317 q 140 -285 184 -317 q 97 -183 97 -253 q 128 -87 97 -132 q 229 0 160 -43 l 301 0 "},"ð":{"x_min":24,"x_max":602.78125,"ha":686,"o":"m 393 749 q 364 806 376 783 q 339 848 352 829 l 189 801 l 165 870 l 294 912 q 246 979 271 946 q 194 1042 221 1011 l 358 1042 q 391 1003 373 1025 q 427 954 408 982 l 579 1005 l 602 933 l 473 893 q 565 709 534 802 q 596 523 596 616 q 589 440 596 486 q 572 335 583 393 q 532 187 554 249 q 483 80 511 125 q 394 1 450 28 q 263 -25 339 -25 q 83 31 143 -25 q 24 204 24 88 q 29 277 24 233 q 49 393 35 321 q 86 548 67 492 q 133 645 106 604 q 222 726 167 697 q 340 755 276 755 q 385 750 355 755 q 393 749 389 750 m 350 627 q 286 599 310 627 q 242 497 263 572 q 201 314 216 398 q 186 191 186 231 q 204 119 186 140 q 266 98 223 98 q 331 125 307 98 q 375 227 354 152 q 416 410 401 326 q 432 532 432 493 q 412 603 432 580 q 350 627 392 627 "},"ş":{"x_min":-29,"x_max":559,"ha":607,"o":"m -10 277 l 144 276 q 143 253 143 265 q 143 222 143 241 q 164 139 143 165 q 232 113 186 113 q 298 135 276 113 q 320 201 320 157 q 225 327 320 257 l 217 333 q 95 451 126 399 q 65 574 65 503 q 132 744 65 685 q 324 804 199 804 q 499 748 439 804 q 559 589 559 693 q 558 565 559 586 q 557 528 557 545 l 401 528 l 401 550 q 381 648 401 622 q 312 674 362 674 q 256 652 277 674 q 236 594 236 631 q 317 478 236 534 q 350 456 339 464 q 460 348 426 402 q 494 230 494 294 q 424 44 494 110 q 227 -22 354 -22 q 43 33 104 -22 q -17 201 -17 89 q -15 238 -17 220 q -10 277 -13 257 m 92 -146 l 143 0 l 221 0 l 198 -63 q 294 -101 262 -71 q 326 -180 326 -130 q 276 -296 326 -255 q 135 -338 226 -338 q 67 -330 107 -338 q -29 -307 28 -323 l 3 -219 q 73 -237 42 -231 q 129 -243 104 -243 q 178 -229 160 -243 q 196 -192 196 -215 q 171 -156 196 -167 q 92 -146 147 -146 "},"ı":{"x_min":-28,"x_max":319,"ha":349,"o":"m -28 0 l 137 778 l 319 778 l 153 0 l -28 0 "},"Ć":{"x_min":36,"x_max":761,"ha":807,"o":"m 498 338 l 680 338 q 567 66 653 157 q 337 -24 482 -24 q 111 45 187 -24 q 36 255 36 115 q 40 337 36 291 q 55 441 45 383 q 103 680 79 579 q 149 835 127 782 q 274 1013 200 958 q 459 1069 347 1069 q 690 998 619 1069 q 761 768 761 927 q 756 700 761 749 q 755 684 756 690 l 567 684 q 570 736 569 713 q 572 776 572 759 q 546 889 572 856 q 462 922 521 922 q 376 883 408 922 q 317 741 344 844 q 248 435 274 576 q 223 248 223 293 q 251 153 223 184 q 339 122 280 122 q 440 174 402 122 q 498 338 479 227 m 510 1143 l 436 1143 l 555 1300 l 712 1300 l 510 1143 "},"ä":{"x_min":-17,"x_max":612,"ha":676,"o":"m 389 375 q 332 350 369 367 q 164 194 164 279 q 183 127 164 150 q 241 104 203 104 q 330 155 299 104 q 389 375 361 206 m 341 60 q 269 -3 308 17 q 180 -24 230 -24 q 34 30 86 -24 q -17 185 -17 85 q 39 358 -17 293 q 216 451 95 422 q 240 456 224 453 q 433 598 433 502 q 411 653 433 633 q 352 673 390 673 q 276 645 303 673 q 238 555 250 617 l 64 555 q 154 742 81 680 q 356 804 226 804 q 544 754 477 804 q 612 614 612 704 q 609 581 612 601 q 602 537 607 561 l 512 105 q 505 60 508 88 q 500 0 502 33 l 333 0 l 341 60 m 431 885 l 463 1031 l 607 1031 l 574 885 l 431 885 m 222 885 l 255 1031 l 398 1031 l 364 885 l 222 885 "},"¹":{"x_min":87,"x_max":396,"ha":458,"o":"m 252 408 l 131 408 l 234 865 q 160 856 197 859 q 87 852 123 852 l 103 924 q 237 957 188 931 q 311 1032 286 982 l 396 1032 l 252 408 "},"£":{"x_min":-31,"x_max":702,"ha":694,"o":"m 12 -10 l -31 108 q 106 229 57 147 q 154 423 154 311 l 154 450 l 33 450 l 52 546 l 144 546 q 133 619 137 581 q 130 697 130 657 q 211 951 130 860 q 438 1042 292 1042 q 636 973 571 1042 q 702 766 702 905 q 701 741 702 750 q 700 725 701 731 l 527 725 q 527 740 527 731 q 528 762 528 748 q 502 868 528 833 q 425 903 477 903 q 333 850 362 903 q 304 685 304 797 q 307 618 304 653 q 316 546 310 584 l 498 546 l 482 450 l 322 450 l 322 445 q 277 263 322 341 q 144 137 232 184 l 146 130 q 208 155 179 147 q 262 163 236 163 q 356 147 296 163 q 444 132 416 132 q 509 140 478 132 q 568 166 539 148 l 550 12 q 490 -12 526 -3 q 411 -21 454 -21 q 274 7 362 -21 q 142 35 186 35 q 82 24 113 35 q 12 -10 50 12 "},"W":{"x_min":104,"x_max":1191,"ha":1120,"o":"m 344 0 l 117 0 l 104 1044 l 288 1044 l 272 393 q 268 289 272 353 q 259 149 264 226 q 293 284 276 225 q 328 394 310 344 l 561 1044 l 723 1044 l 724 387 q 722 272 724 332 q 717 150 721 212 q 758 313 745 264 q 777 381 771 363 l 990 1044 l 1191 1044 l 805 0 l 580 0 l 577 494 q 581 586 577 524 q 590 734 584 649 q 553 602 571 664 q 519 494 535 540 l 344 0 "},"Ğ":{"x_min":36,"x_max":761,"ha":818,"o":"m 507 95 q 412 5 463 34 q 296 -24 361 -24 q 108 51 181 -24 q 36 250 36 127 q 41 345 36 294 q 58 474 46 397 q 100 683 78 593 q 148 834 123 773 q 273 1012 199 956 q 459 1068 347 1068 q 689 998 617 1068 q 761 774 761 928 q 759 740 761 757 q 755 701 758 722 l 567 701 q 570 745 569 726 q 572 777 572 764 q 546 888 572 856 q 462 921 521 921 q 376 882 408 921 q 317 741 344 844 q 248 442 273 575 q 223 249 223 310 q 251 151 223 184 q 335 119 279 119 q 454 187 410 119 q 512 395 498 256 l 393 395 l 426 554 l 742 554 l 629 0 l 494 0 l 507 95 m 380 1301 l 456 1301 q 478 1249 457 1266 q 543 1232 500 1232 q 620 1248 589 1232 q 672 1301 650 1265 l 751 1301 q 669 1182 724 1222 q 532 1143 614 1143 q 417 1178 455 1143 q 380 1285 380 1213 l 380 1301 "},"v":{"x_min":43,"x_max":642,"ha":611,"o":"m 306 0 l 102 0 l 43 778 l 224 778 l 237 204 l 449 778 l 642 778 l 306 0 "},">":{"x_min":179,"x_max":978,"ha":1157,"o":"m 179 809 l 978 481 l 978 346 l 179 18 l 179 166 l 786 413 l 179 660 l 179 809 "},"û":{"x_min":0,"x_max":660,"ha":686,"o":"m 479 778 l 660 778 l 494 0 l 326 0 l 343 66 q 249 -1 296 20 q 152 -24 202 -24 q 39 13 79 -24 q 0 123 0 51 q 3 160 0 138 q 13 219 6 182 l 133 778 l 314 778 l 199 234 q 193 200 195 215 q 191 173 191 185 q 206 124 191 141 q 253 108 222 108 q 323 141 296 108 q 367 251 350 175 l 479 778 m 588 876 l 513 876 l 427 958 l 298 876 l 212 876 l 363 1035 l 504 1035 l 588 876 "},"Ð":{"x_min":-10,"x_max":792,"ha":833,"o":"m -10 0 l 94 497 l -2 497 l 25 631 l 121 631 l 207 1044 l 490 1044 q 717 978 642 1044 q 792 778 792 913 q 783 664 792 738 q 757 502 774 591 q 710 293 733 374 q 661 164 687 212 q 546 38 615 77 q 374 0 478 0 l -10 0 m 213 150 l 313 150 q 431 175 388 150 q 495 258 474 200 q 524 360 507 293 q 560 524 541 428 q 589 683 580 627 q 598 769 598 740 q 562 863 598 834 q 446 893 527 893 l 369 893 l 313 631 l 468 631 l 440 497 l 285 497 l 213 150 "},"r":{"x_min":-28,"x_max":505,"ha":486,"o":"m 307 778 l 276 654 l 280 654 q 360 766 313 730 q 474 802 407 802 q 492 801 486 802 q 505 800 498 801 l 465 600 q 439 602 452 601 q 414 603 427 603 q 305 570 342 603 q 251 459 267 537 l 153 0 l -28 0 l 138 778 l 307 778 "},"Č":{"x_min":36,"x_max":761,"ha":807,"o":"m 498 338 l 680 338 q 567 66 653 157 q 337 -24 482 -24 q 111 45 187 -24 q 36 255 36 115 q 40 337 36 291 q 55 441 45 383 q 103 680 79 579 q 149 835 127 782 q 274 1013 200 958 q 459 1069 347 1069 q 690 998 619 1069 q 761 768 761 927 q 756 700 761 749 q 755 684 756 690 l 567 684 q 570 736 569 713 q 572 776 572 759 q 546 889 572 856 q 462 922 521 922 q 376 883 408 922 q 317 741 344 844 q 248 435 274 576 q 223 248 223 293 q 251 153 223 184 q 339 122 280 122 q 440 174 402 122 q 498 338 479 227 m 373 1300 l 447 1300 l 533 1219 l 661 1300 l 748 1300 l 596 1143 l 455 1143 l 373 1300 "},"x":{"x_min":-102,"x_max":603,"ha":566,"o":"m 99 0 l -102 0 l 162 413 l 56 778 l 234 778 l 278 565 l 400 778 l 603 778 l 340 385 l 463 0 l 280 0 l 226 234 l 99 0 "},"è":{"x_min":11,"x_max":607,"ha":672,"o":"m 421 492 q 431 549 428 523 q 435 592 435 575 q 415 652 435 632 q 356 672 395 672 q 275 632 304 672 q 228 492 246 592 l 421 492 m 377 259 l 547 259 q 464 45 535 116 q 263 -26 393 -26 q 73 30 135 -26 q 11 204 11 87 q 13 262 11 229 q 21 329 16 294 q 51 501 34 425 q 86 620 67 577 q 193 760 127 718 q 368 803 258 803 q 549 750 492 803 q 607 586 607 698 q 599 488 607 544 q 576 370 591 433 l 206 370 q 189 270 195 313 q 183 203 183 227 q 204 131 183 155 q 268 108 225 108 q 341 144 315 108 q 377 259 368 181 m 507 878 l 426 878 l 214 1035 l 382 1035 l 507 878 "},"Ø":{"x_min":1.375,"x_max":799.015625,"ha":815,"o":"m 799 1051 l 735 954 q 767 885 757 924 q 778 792 778 846 q 775 730 778 764 q 766 653 772 695 q 729 436 750 537 q 685 264 708 335 q 551 45 634 114 q 339 -24 468 -24 q 226 -10 278 -24 q 142 26 173 3 l 65 -95 l 1 -51 l 86 80 q 47 160 60 115 q 35 262 35 205 q 40 344 35 298 q 56 445 45 391 q 106 682 81 581 q 152 833 131 782 q 281 1012 205 956 q 472 1068 356 1068 q 591 1054 538 1068 q 682 1013 644 1040 l 734 1095 l 799 1051 m 228 309 l 581 859 q 548 905 574 889 q 480 921 522 921 q 429 912 452 921 q 389 887 406 904 q 302 663 347 844 q 287 602 293 623 q 256 463 271 537 q 228 309 240 390 m 583 715 l 237 174 q 276 135 252 148 q 335 123 301 123 q 430 157 393 123 q 488 268 466 191 q 537 469 513 355 q 583 715 562 583 "},"÷":{"x_min":171,"x_max":986,"ha":1157,"o":"m 578 250 q 650 219 620 250 q 681 146 681 189 q 650 75 681 105 q 578 46 620 46 q 506 75 536 46 q 476 146 476 104 q 506 219 476 189 q 578 250 536 250 m 171 482 l 986 482 l 986 347 l 171 347 l 171 482 m 578 783 q 650 753 620 783 q 681 681 681 723 q 650 608 681 638 q 578 579 620 579 q 506 608 536 579 q 476 681 476 638 q 506 753 476 723 q 578 783 536 783 "},"h":{"x_min":-29,"x_max":631,"ha":688,"o":"m 152 0 l -29 0 l 193 1042 l 374 1042 l 307 725 q 389 782 346 763 q 478 802 432 802 q 591 763 551 802 q 631 654 631 725 q 627 619 631 640 q 616 560 624 598 l 498 0 l 317 0 l 432 543 q 440 583 438 570 q 442 604 442 595 q 425 653 442 636 q 378 670 409 670 q 307 636 334 670 q 264 528 280 603 l 152 0 "},".":{"x_min":-21,"x_max":200,"ha":347,"o":"m 161 0 l -21 0 l 18 180 l 200 180 l 161 0 "},"f":{"x_min":-18,"x_max":461,"ha":385,"o":"m -18 0 l 120 659 l 47 659 l 71 778 l 147 778 l 173 905 q 232 1018 191 986 q 360 1051 274 1051 q 396 1048 373 1051 q 461 1040 420 1046 l 432 910 q 421 912 427 911 q 402 913 415 913 q 358 900 372 913 q 338 856 345 888 l 321 778 l 404 778 l 378 659 l 304 659 l 164 0 l -18 0 "},"“":{"x_min":113,"x_max":708,"ha":681,"o":"m 570 860 l 667 860 l 629 681 l 446 681 l 490 889 q 560 1026 511 986 q 708 1066 609 1066 l 697 1006 q 603 968 637 1006 q 570 860 570 929 m 238 863 l 334 863 l 296 684 l 113 684 l 157 892 q 227 1028 177 988 q 375 1069 277 1069 l 364 1009 q 271 971 304 1009 q 238 863 239 933 "},"A":{"x_min":-86,"x_max":627,"ha":730,"o":"m 278 418 l 438 418 l 454 919 l 278 418 m 113 0 l -86 0 l 353 1044 l 603 1044 l 627 0 l 436 0 l 436 268 l 219 268 l 113 0 "},"O":{"x_min":35,"x_max":778,"ha":815,"o":"m 473 922 q 384 882 418 922 q 321 741 350 843 q 246 438 275 577 q 217 262 217 300 q 247 157 217 192 q 338 123 277 123 q 440 169 403 123 q 514 369 477 216 q 571 638 550 518 q 593 801 593 758 q 562 891 593 860 q 473 922 532 922 m 35 256 q 39 341 35 295 q 54 443 44 388 q 102 677 77 575 q 150 834 127 780 q 278 1013 203 957 q 466 1069 353 1069 q 701 999 625 1069 q 778 784 778 929 q 775 722 778 755 q 768 655 773 690 q 730 439 752 541 q 683 264 708 338 q 549 43 631 110 q 333 -24 468 -24 q 110 47 186 -24 q 35 256 35 118 "},"π":{"x_min":-24,"x_max":918,"ha":895,"o":"m 918 741 l 891 589 l 772 589 l 667 0 l 473 0 l 576 589 l 414 589 l 312 0 l 117 0 l 221 589 l 204 589 q 147 567 166 589 q 120 500 127 546 l -24 500 q 59 688 -4 635 q 270 741 123 741 l 918 741 "},"‘":{"x_min":113,"x_max":375,"ha":347,"o":"m 238 863 l 334 863 l 296 684 l 113 684 l 157 892 q 227 1028 177 988 q 375 1069 277 1069 l 364 1009 q 271 971 304 1009 q 238 863 239 933 "},"3":{"x_min":8,"x_max":660,"ha":694,"o":"m 22 350 l 197 350 q 189 279 191 306 q 187 230 187 252 q 207 139 187 168 q 269 111 227 111 q 366 171 333 111 q 399 349 399 232 q 362 450 399 420 q 240 481 326 481 l 226 481 l 254 613 l 267 613 l 293 613 q 438 661 392 613 q 484 814 484 709 q 460 881 484 857 q 396 906 437 906 q 318 866 347 906 q 282 748 290 827 l 108 748 q 192 967 117 889 q 394 1046 267 1046 q 591 981 522 1046 q 660 797 660 917 q 611 612 660 685 q 476 522 562 539 q 559 445 533 489 q 586 333 586 400 q 504 64 586 158 q 270 -29 423 -29 q 76 39 145 -29 q 8 233 8 107 q 11 282 8 252 q 22 350 15 312 "},"9":{"x_min":14,"x_max":660,"ha":694,"o":"m 409 904 q 357 886 379 904 q 321 832 334 868 q 278 681 294 761 q 263 544 263 602 q 279 482 263 502 q 329 463 295 463 q 382 479 359 463 q 421 528 405 496 q 466 664 448 582 q 485 816 485 746 q 466 882 485 861 q 409 904 447 904 m 16 239 l 182 239 l 182 222 q 201 141 182 167 q 262 115 221 115 q 338 160 310 115 q 407 383 366 205 q 345 341 378 355 q 272 328 312 328 q 128 386 180 328 q 77 549 77 445 q 102 751 77 650 q 169 917 128 852 q 270 1011 211 980 q 409 1042 328 1042 q 594 975 528 1042 q 660 788 660 909 q 654 699 660 752 q 636 577 648 647 q 581 317 608 418 q 522 148 554 216 q 417 20 481 60 q 256 -20 353 -20 q 73 35 133 -20 q 14 204 14 90 q 14 225 14 217 q 16 239 14 232 "},"l":{"x_min":-28,"x_max":376,"ha":349,"o":"m -28 0 l 193 1042 l 376 1042 l 153 0 l -28 0 "},"":{"x_min":-18,"x_max":754,"ha":726,"o":"m -18 0 l 120 659 l 47 659 l 71 778 l 147 778 l 173 905 q 232 1018 191 986 q 360 1051 274 1051 q 397 1048 373 1051 q 461 1040 420 1046 l 432 910 q 421 912 427 911 q 402 913 415 913 q 359 900 372 913 q 339 856 345 888 l 322 778 l 404 778 l 379 659 l 304 659 l 164 0 l -18 0 m 349 0 l 515 778 l 697 778 l 531 0 l 349 0 m 537 887 l 570 1042 l 754 1042 l 720 887 l 537 887 "},"4":{"x_min":-11,"x_max":660,"ha":694,"o":"m 660 1029 l 522 367 l 626 367 l 596 221 l 490 221 l 442 0 l 259 0 l 307 221 l -11 221 l 20 385 l 434 1029 l 660 1029 m 151 367 l 343 367 l 451 825 l 440 825 q 408 766 426 797 q 366 699 390 735 l 151 367 "},"Ü":{"x_min":35,"x_max":847,"ha":829,"o":"m 694 318 q 648 149 669 198 q 594 65 627 100 q 488 -2 552 20 q 343 -26 424 -26 q 118 42 202 -26 q 35 225 35 111 q 41 292 35 251 q 62 404 47 332 l 200 1044 l 393 1044 l 246 351 q 234 285 238 313 q 230 237 230 257 q 263 152 230 183 q 355 121 297 121 q 448 158 416 121 q 504 320 479 196 l 656 1044 l 847 1044 l 694 318 m 571 1150 l 603 1296 l 747 1296 l 714 1150 l 571 1150 m 362 1150 l 395 1296 l 538 1296 l 504 1150 l 362 1150 "},"à":{"x_min":-17,"x_max":612,"ha":676,"o":"m 389 375 q 332 350 369 367 q 164 194 164 279 q 183 127 164 150 q 241 104 203 104 q 330 155 299 104 q 389 375 361 206 m 341 60 q 269 -3 308 17 q 180 -24 230 -24 q 34 30 86 -24 q -17 185 -17 85 q 39 358 -17 293 q 216 451 95 422 q 240 456 224 453 q 433 598 433 502 q 411 653 433 633 q 352 673 390 673 q 276 645 303 673 q 238 555 250 617 l 64 555 q 154 742 81 680 q 356 804 226 804 q 544 754 477 804 q 612 614 612 704 q 609 581 612 601 q 602 537 607 561 l 512 105 q 505 60 508 88 q 500 0 502 33 l 333 0 l 341 60 m 510 878 l 429 878 l 217 1035 l 385 1035 l 510 878 "},"ó":{"x_min":11,"x_max":619,"ha":686,"o":"m 11 221 q 17 304 11 254 q 36 419 23 354 q 78 588 57 529 q 127 690 98 646 q 223 774 164 745 q 360 803 282 803 q 554 741 490 803 q 619 559 619 680 q 612 470 619 521 q 594 358 606 419 q 552 199 575 265 q 499 87 528 133 q 405 3 465 32 q 266 -26 345 -26 q 74 35 138 -26 q 11 221 11 96 m 356 669 q 289 640 314 669 q 242 532 264 612 q 198 337 214 426 q 182 206 182 248 q 202 131 182 154 q 269 108 223 108 q 337 136 311 108 q 383 244 362 165 q 427 436 411 348 q 444 569 444 524 q 423 644 444 620 q 356 669 402 669 m 385 878 l 311 878 l 430 1035 l 587 1035 l 385 878 "}}}
